<svg xmlns:xlink="http://www.w3.org/1999/xlink" style="fill-opacity:1; color-rendering:auto; color-interpolation:auto; text-rendering:auto; stroke:black; stroke-linecap:square; stroke-miterlimit:10; shape-rendering:auto; stroke-opacity:1; fill:black; stroke-dasharray:none; font-weight:normal; stroke-width:1; font-family:'Dialog'; font-style:normal; stroke-linejoin:miter; font-size:12px; stroke-dashoffset:0; image-rendering:auto;" width="242" height="242" xmlns="http://www.w3.org/2000/svg">
    <defs id="genericDefs"/>
    <g>
        <g style="fill:white; stroke:white;">
            <rect x="0" width="242" height="242" y="0" style="stroke:none;"/>
            <line transform="scale(16,16) translate(0.0625,0.0625) scale(0.0625,0.0625)" x1="10.5" x2="230.5" y1="120.5" style="stroke-linecap:butt; fill:none; stroke:black;" y2="120.5"/>
            <line transform="scale(16,16) translate(0.0625,0.0625) scale(0.0625,0.0625)" x1="226.5" x2="230.5" y1="118.5" style="stroke-linecap:butt; fill:none; stroke:black;" y2="120.5"/>
            <line transform="scale(16,16) translate(0.0625,0.0625) scale(0.0625,0.0625)" x1="226.5" x2="230.5" y1="122.5" style="stroke-linecap:butt; fill:none; stroke:black;" y2="120.5"/>
        </g>
        <g style="font-size:100px; font-family:'jlm_cmmi10'; stroke-linecap:butt;" transform="scale(16,16) translate(0.0625,0.0625) scale(1.125,1.125) translate(12.1111,6.3194) scale(0.01,0.01)">
            <path style="stroke:none;" d="M33.4062 -30.2031 L30 -16.5 Q28.2969 -9.7031 28.2969 -7.7031 Q28.2969 -2.5 32 -1.4062 Q32.7969 -1.0938 33.7969 -1.0938 Q38.7969 -1.0938 42.9062 -6.0938 Q45.5938 -9.2969 47.0938 -14.2031 Q47.4062 -15.2969 48.4062 -15.2969 Q49.5938 -15.2969 49.5938 -14.2969 Q49.5938 -11.7969 46.5 -7.0938 Q41.0938 1.0938 33.5938 1.0938 Q26.7969 1.0938 23.7031 -4.5938 Q23.0938 -5.5 22.7969 -6.5 Q20.4062 -1.7031 16.2031 0.2031 Q14.2969 1.0938 12.2969 1.0938 Q6.2969 1.0938 3.9062 -2.4062 Q2.9062 -3.7031 2.9062 -5.5 Q2.9062 -9.2031 6.0938 -10.7031 Q7.2031 -11.2969 8.4062 -11.2969 Q11.4062 -11.2969 12 -8.7969 Q12.0938 -8.2969 12.0938 -7.7969 Q12.0938 -4.4062 8.7031 -2.7969 Q8.0938 -2.5 7.4062 -2.4062 Q9.5 -1.0938 12.4062 -1.0938 Q17.7031 -1.0938 20.7969 -8.2031 Q21.4062 -9.7031 21.9062 -11.5 Q27.2969 -31.9062 27.2969 -35.2969 Q26.7031 -41.5 21.9062 -42 Q16.7031 -42 12.4062 -36.7031 L12.4062 -36.5938 Q12.4062 -36.5 12.2969 -36.5 Q10.7969 -34.5 9.5938 -31.9062 Q9.0938 -30.7031 8.7031 -29.5 L8.5 -28.9062 Q8.2969 -27.7969 7.2031 -27.7969 Q6 -27.7969 6 -28.7969 Q6 -31.2969 9.2031 -36 Q14.5938 -44.2031 22.0938 -44.2031 Q29.7969 -44.2031 32.9062 -36.5938 Q36.0938 -42.7969 41.4062 -44 Q42.4062 -44.2031 43.4062 -44.2031 Q49.2969 -44.2031 51.7031 -40.9062 Q52.7031 -39.5 52.7031 -37.5938 Q52.7031 -33.5 49 -32.0938 Q48.0938 -31.7969 47.2969 -31.7969 Q44.2031 -31.7969 43.5938 -34.5 Q43.5 -34.9062 43.5 -35.2969 Q43.5 -38.2969 46.4062 -40 Q47.2969 -40.5 48.2969 -40.7031 Q46.2031 -42 43.2969 -42 Q36.5 -42 33.7031 -31.4062 Q33.5 -30.7969 33.4062 -30.2031 Z"/>
        </g>
        <g style="font-size:100px; font-family:'jlm_cmmi10'; stroke-linecap:butt;" transform="matrix(1,0,0,1,1,1)">
            <line y2="124.5" style="fill:none;" x1="20.5" x2="20.5" y1="116.5"/>
            <path d="M66.0938 -23 L11.5938 -23 Q8.4062 -23 8.2969 -25 Q8.2969 -27 11.5938 -27 L66.0938 -27 Q69.2969 -27 69.4062 -25 Q69.4062 -23 66.0938 -23 Z" style="stroke:none;" transform="scale(18,18) translate(0.5,7.7) scale(0.01,0.01)"/>
        </g>
        <g style="font-size:100px; font-family:'jlm_cmr10'; stroke-linecap:butt;" transform="matrix(18,0,0,18,1,1) translate(1.2778,7.7) scale(0.01,0.01)">
            <path style="stroke:none;" d="M2.7969 -16.5 L2.7969 -19.5938 L33.5 -66.5 Q34.2969 -67.7031 35.5 -67.7031 Q36.9062 -67.7031 37.0938 -66.5938 L37.0938 -65.0938 L37.0938 -19.5938 L47.0938 -19.5938 L47.0938 -16.5 L37.0938 -16.5 L37.0938 -7.7969 Q37.0938 -4.7031 38.2969 -4 Q39.7031 -3.0938 44.7031 -3.0938 L46.7969 -3.0938 L46.7969 0 Q42.7031 -0.2969 33.2031 -0.2969 Q23.7969 -0.2969 19.7031 0 L19.7031 -3.0938 L21.7969 -3.0938 Q28 -3.0938 29 -4.7969 Q29.4062 -5.5 29.4062 -7.7969 L29.4062 -16.5 L2.7969 -16.5 ZM30 -19.5938 L30 -56.9062 L5.5938 -19.5938 L30 -19.5938 Z"/>
        </g>
        <g style="font-size:100px; font-family:'jlm_cmr10'; stroke-linecap:butt;" transform="matrix(1,0,0,1,1,1)">
            <line y2="120.5" style="fill:none;" x1="20.5" x2="20.5" y1="116.5"/>
            <line y2="120.5" style="fill:none;" x1="40.5" x2="40.5" y1="116.5"/>
            <line y2="120.5" style="fill:none;" x1="60.5" x2="60.5" y1="116.5"/>
            <line y2="120.5" style="fill:none;" x1="80.5" x2="80.5" y1="116.5"/>
            <line y2="120.5" style="fill:none;" x1="120.5" x2="120.5" y1="116.5"/>
            <line y2="120.5" style="fill:none;" x1="140.5" x2="140.5" y1="116.5"/>
            <line y2="120.5" style="fill:none;" x1="160.5" x2="160.5" y1="116.5"/>
            <line y2="124.5" style="fill:none;" x1="180.5" x2="180.5" y1="116.5"/>
            <path d="M2.7969 -16.5 L2.7969 -19.5938 L33.5 -66.5 Q34.2969 -67.7031 35.5 -67.7031 Q36.9062 -67.7031 37.0938 -66.5938 L37.0938 -65.0938 L37.0938 -19.5938 L47.0938 -19.5938 L47.0938 -16.5 L37.0938 -16.5 L37.0938 -7.7969 Q37.0938 -4.7031 38.2969 -4 Q39.7031 -3.0938 44.7031 -3.0938 L46.7969 -3.0938 L46.7969 0 Q42.7031 -0.2969 33.2031 -0.2969 Q23.7969 -0.2969 19.7031 0 L19.7031 -3.0938 L21.7969 -3.0938 Q28 -3.0938 29 -4.7969 Q29.4062 -5.5 29.4062 -7.7969 L29.4062 -16.5 L2.7969 -16.5 ZM30 -19.5938 L30 -56.9062 L5.5938 -19.5938 L30 -19.5938 Z" style="stroke:none;" transform="scale(18,18) translate(9.7778,7.7) scale(0.01,0.01)"/>
        </g>
        <g style="font-size:100px; font-family:'jlm_cmr10'; stroke-linecap:butt;" transform="matrix(1,0,0,1,1,1)">
            <line y2="120.5" style="fill:none;" x1="180.5" x2="180.5" y1="116.5"/>
            <line y2="120.5" style="fill:none;" x1="200.5" x2="200.5" y1="116.5"/>
            <line y2="120.5" style="fill:none;" x1="220.5" x2="220.5" y1="116.5"/>
            <line y2="230.5" style="fill:none;" x1="100.5" x2="100.5" y1="10.5"/>
            <line y2="14.5" style="fill:none;" x1="100.5" x2="98.5" y1="10.5"/>
            <line y2="14.5" style="fill:none;" x1="100.5" x2="102.5" y1="10.5"/>
            <path d="M48.5938 -38.0938 L39 0.0938 Q36.5938 9.9062 28.2969 16 Q22.2031 20.5 15.5938 20.5 Q8.9062 20.5 6.0938 15.9062 Q5 14 5 11.7969 Q5 6.7031 9.0938 5.5 Q9.9062 5.2969 10.5938 5.2969 Q13.7969 5.2969 14.2031 8.0938 Q14.2969 8.4062 14.2969 8.7969 Q14.2969 11.0938 12.2969 12.9062 Q10.9062 14.0938 8 14.0938 Q9.7969 18.2969 15.5938 18.2969 Q21.7969 18.2969 26.5938 12 Q30.5 6.7969 32.7969 -2.0938 Q32.9062 -2.5 33.0938 -3.4062 Q28.5938 1.0938 23 1.0938 Q15 1.0938 12.0938 -4.7969 Q10.7969 -7.4062 10.7969 -10.7969 Q10.7969 -16.2969 16.0938 -30.5 Q16.2969 -31.0938 16.5938 -31.7969 Q18.2969 -36.4062 18.2969 -38.7969 Q18.2969 -42 15.7969 -42 Q10.2969 -42 6.7969 -32.9062 L6.7969 -32.7969 Q6.2031 -31.2969 5.7031 -29.5938 Q4.5938 -27.9062 4.0938 -27.7969 Q2.9062 -27.7969 2.9062 -28.7969 Q2.9062 -30.5938 5 -35.0938 Q9.4062 -44.2031 16.0938 -44.2031 Q21.4062 -44.2031 23.5 -39.7031 Q24.2969 -38 24.2969 -36 Q24.2969 -33.9062 22.2969 -28.7969 Q17.2031 -15.5938 17.2031 -9.2031 Q17.2031 -1.0938 23.4062 -1.0938 Q29.2031 -1.0938 33.5 -7.2969 Q34.5 -8.7969 34.7031 -9.5938 L39.2031 -27.5938 Q39.9062 -30.9062 41.2031 -35.5938 Q42.2031 -39.9062 42.5938 -41 Q43.9062 -43.0938 46.0938 -43.0938 Q48.5938 -42.5938 49 -40.4062 Q49 -39.5 48.5938 -38.0938 Z" style="stroke:none;" transform="scale(18,18) translate(5.7778,0.6528) scale(0.01,0.01)"/>
        </g>
        <g style="font-size:100px; font-family:'jlm_cmmi10'; stroke-linecap:butt;" transform="matrix(1,0,0,1,1,1)">
            <line y2="220.5" style="fill:none;" x1="104.5" x2="100.5" y1="220.5"/>
            <line y2="200.5" style="fill:none;" x1="104.5" x2="96.5" y1="200.5"/>
            <path d="M66.0938 -23 L11.5938 -23 Q8.4062 -23 8.2969 -25 Q8.2969 -27 11.5938 -27 L66.0938 -27 Q69.2969 -27 69.4062 -25 Q69.4062 -23 66.0938 -23 Z" style="stroke:none;" transform="scale(18,18) translate(3.8889,11.3667) scale(0.01,0.01)"/>
        </g>
        <g style="font-size:100px; font-family:'jlm_cmr10'; stroke-linecap:butt;" transform="matrix(18,0,0,18,1,1) translate(4.6667,11.3667) scale(0.01,0.01)">
            <path style="stroke:none;" d="M2.7969 -16.5 L2.7969 -19.5938 L33.5 -66.5 Q34.2969 -67.7031 35.5 -67.7031 Q36.9062 -67.7031 37.0938 -66.5938 L37.0938 -65.0938 L37.0938 -19.5938 L47.0938 -19.5938 L47.0938 -16.5 L37.0938 -16.5 L37.0938 -7.7969 Q37.0938 -4.7031 38.2969 -4 Q39.7031 -3.0938 44.7031 -3.0938 L46.7969 -3.0938 L46.7969 0 Q42.7031 -0.2969 33.2031 -0.2969 Q23.7969 -0.2969 19.7031 0 L19.7031 -3.0938 L21.7969 -3.0938 Q28 -3.0938 29 -4.7969 Q29.4062 -5.5 29.4062 -7.7969 L29.4062 -16.5 L2.7969 -16.5 ZM30 -19.5938 L30 -56.9062 L5.5938 -19.5938 L30 -19.5938 Z"/>
        </g>
        <g style="font-size:100px; font-family:'jlm_cmr10'; stroke-linecap:butt;" transform="matrix(1,0,0,1,1,1)">
            <line y2="200.5" style="fill:none;" x1="104.5" x2="100.5" y1="200.5"/>
            <line y2="180.5" style="fill:none;" x1="104.5" x2="100.5" y1="180.5"/>
            <line y2="160.5" style="fill:none;" x1="104.5" x2="100.5" y1="160.5"/>
            <line y2="140.5" style="fill:none;" x1="104.5" x2="100.5" y1="140.5"/>
            <line y2="100.5" style="fill:none;" x1="104.5" x2="100.5" y1="100.5"/>
            <line y2="80.5" style="fill:none;" x1="104.5" x2="100.5" y1="80.5"/>
            <line y2="60.5" style="fill:none;" x1="104.5" x2="100.5" y1="60.5"/>
            <line y2="40.5" style="fill:none;" x1="104.5" x2="96.5" y1="40.5"/>
            <path d="M2.7969 -16.5 L2.7969 -19.5938 L33.5 -66.5 Q34.2969 -67.7031 35.5 -67.7031 Q36.9062 -67.7031 37.0938 -66.5938 L37.0938 -65.0938 L37.0938 -19.5938 L47.0938 -19.5938 L47.0938 -16.5 L37.0938 -16.5 L37.0938 -7.7969 Q37.0938 -4.7031 38.2969 -4 Q39.7031 -3.0938 44.7031 -3.0938 L46.7969 -3.0938 L46.7969 0 Q42.7031 -0.2969 33.2031 -0.2969 Q23.7969 -0.2969 19.7031 0 L19.7031 -3.0938 L21.7969 -3.0938 Q28 -3.0938 29 -4.7969 Q29.4062 -5.5 29.4062 -7.7969 L29.4062 -16.5 L2.7969 -16.5 ZM30 -19.5938 L30 -56.9062 L5.5938 -19.5938 L30 -19.5938 Z" style="stroke:none;" transform="scale(18,18) translate(4.6667,2.5333) scale(0.01,0.01)"/>
        </g>
        <g style="font-size:100px; font-family:'jlm_cmr10'; stroke-linecap:butt;" transform="matrix(1,0,0,1,1,1)">
            <line y2="40.5" style="fill:none;" x1="104.5" x2="100.5" y1="40.5"/>
            <line y2="20.5" style="fill:none;" x1="104.5" x2="100.5" y1="20.5"/>
            <path d="M21.6818 -1 L24 5.76 L26.4 12.5856 L28.8 19.2384 L31.2 25.7184 L33.6 32.0256 L36 38.16 L38.4 44.1216 L40.8 49.9104 L43.2 55.5264 L45.6 60.9696 L48 66.24 L50.4 71.3376 L52.8 76.2624 L55.2 81.0144 L57.6 85.5936 L60 90 L62.4 94.2336 L64.8 98.2944 L67.2 102.1824 L69.6 105.8976 L72 109.44 L74.4 112.8096 L76.8 116.0064 L79.2 119.0304 L81.6 121.8816 L84 124.56 L86.4 127.0656 L88.8 129.3984 L91.2 131.5584 L93.6 133.5456 L96 135.36 L98.4 137.0016 L100.8 138.4704 L103.2 139.7664 L105.6 140.8896 L108 141.84 L110.4 142.6176 L112.8 143.2224 L115.2 143.6544 L117.6 143.9136 L120 144 L122.4 143.9136 L124.8 143.6544 L127.2 143.2224 L129.6 142.6176 L132 141.84 L134.4 140.8896 L136.8 139.7664 L139.2 138.4704 L141.6 137.0016 L144 135.36 L146.4 133.5456 L148.8 131.5584 L151.2 129.3984 L153.6 127.0656 L156 124.56 L158.4 121.8816 L160.8 119.0304 L163.2 116.0064 L165.6 112.8096 L168 109.44 L170.4 105.8976 L172.8 102.1824 L175.2 98.2944 L177.6 94.2336 L180 90 L182.4 85.5936 L184.8 81.0144 L187.2 76.2624 L189.6 71.3376 L192 66.24 L194.4 60.9696 L196.8 55.5264 L199.2 49.9104 L201.6 44.1216 L204 38.16 L206.4 32.0256 L208.8 25.7184 L211.2 19.2384 L213.6 12.5856 L216 5.76 L218.3182 -1" style="stroke-linejoin:round; fill:none;"/>
            <path d="M21.6818 -1 L24 5.76 L26.4 12.5856 L28.8 19.2384 L31.2 25.7184 L33.6 32.0256 L36 38.16 L38.4 44.1216 L40.8 49.9104 L43.2 55.5264 L45.6 60.9696 L48 66.24 L50.4 71.3376 L52.8 76.2624 L55.2 81.0144 L57.6 85.5936 L60 90 L62.4 94.2336 L64.8 98.2944 L67.2 102.1824 L69.6 105.8976 L72 109.44 L74.4 112.8096 L76.8 116.0064 L79.2 119.0304 L81.6 121.8816 L84 124.56 L86.4 127.0656 L88.8 129.3984 L91.2 131.5584 L93.6 133.5456 L96 135.36 L98.4 137.0016 L100.8 138.4704 L103.2 139.7664 L105.6 140.8896 L108 141.84 L110.4 142.6176 L112.8 143.2224 L115.2 143.6544 L117.6 143.9136 L120 144 L122.4 143.9136 L124.8 143.6544 L127.2 143.2224 L129.6 142.6176 L132 141.84 L134.4 140.8896 L136.8 139.7664 L139.2 138.4704 L141.6 137.0016 L144 135.36 L146.4 133.5456 L148.8 131.5584 L151.2 129.3984 L153.6 127.0656 L156 124.56 L158.4 121.8816 L160.8 119.0304 L163.2 116.0064 L165.6 112.8096 L168 109.44 L170.4 105.8976 L172.8 102.1824 L175.2 98.2944 L177.6 94.2336 L180 90 L182.4 85.5936 L184.8 81.0144 L187.2 76.2624 L189.6 71.3376 L192 66.24 L194.4 60.9696 L196.8 55.5264 L199.2 49.9104 L201.6 44.1216 L204 38.16 L206.4 32.0256 L208.8 25.7184 L211.2 19.2384 L213.6 12.5856 L216 5.76 L218.3182 -1" style="stroke-linejoin:round; fill:none;"/>
            <path d="M21.6818 241 L24 234.24 L26.4 227.4144 L28.8 220.7616 L31.2 214.2816 L33.6 207.9744 L36 201.84 L38.4 195.8784 L40.8 190.0896 L43.2 184.4736 L45.6 179.0304 L48 173.76 L50.4 168.6624 L52.8 163.7376 L55.2 158.9856 L57.6 154.4064 L60 150 L62.4 145.7664 L64.8 141.7056 L67.2 137.8176 L69.6 134.1024 L72 130.56 L74.4 127.1904 L76.8 123.9936 L79.2 120.9696 L81.6 118.1184 L84 115.44 L86.4 112.9344 L88.8 110.6016 L91.2 108.4416 L93.6 106.4544 L96 104.64 L98.4 102.9984 L100.8 101.5296 L103.2 100.2336 L105.6 99.1104 L108 98.16 L110.4 97.3824 L112.8 96.7776 L115.2 96.3456 L117.6 96.0864 L120 96 L122.4 96.0864 L124.8 96.3456 L127.2 96.7776 L129.6 97.3824 L132 98.16 L134.4 99.1104 L136.8 100.2336 L139.2 101.5296 L141.6 102.9984 L144 104.64 L146.4 106.4544 L148.8 108.4416 L151.2 110.6016 L153.6 112.9344 L156 115.44 L158.4 118.1184 L160.8 120.9696 L163.2 123.9936 L165.6 127.1904 L168 130.56 L170.4 134.1024 L172.8 137.8176 L175.2 141.7056 L177.6 145.7664 L180 150 L182.4 154.4064 L184.8 158.9856 L187.2 163.7376 L189.6 168.6624 L192 173.76 L194.4 179.0304 L196.8 184.4736 L199.2 190.0896 L201.6 195.8784 L204 201.84 L206.4 207.9744 L208.8 214.2816 L211.2 220.7616 L213.6 227.4144 L216 234.24 L218.3182 241" style="fill:none; stroke:red; stroke-linejoin:round;"/>
            <path d="M21.6818 241 L24 234.24 L26.4 227.4144 L28.8 220.7616 L31.2 214.2816 L33.6 207.9744 L36 201.84 L38.4 195.8784 L40.8 190.0896 L43.2 184.4736 L45.6 179.0304 L48 173.76 L50.4 168.6624 L52.8 163.7376 L55.2 158.9856 L57.6 154.4064 L60 150 L62.4 145.7664 L64.8 141.7056 L67.2 137.8176 L69.6 134.1024 L72 130.56 L74.4 127.1904 L76.8 123.9936 L79.2 120.9696 L81.6 118.1184 L84 115.44 L86.4 112.9344 L88.8 110.6016 L91.2 108.4416 L93.6 106.4544 L96 104.64 L98.4 102.9984 L100.8 101.5296 L103.2 100.2336 L105.6 99.1104 L108 98.16 L110.4 97.3824 L112.8 96.7776 L115.2 96.3456 L117.6 96.0864 L120 96 L122.4 96.0864 L124.8 96.3456 L127.2 96.7776 L129.6 97.3824 L132 98.16 L134.4 99.1104 L136.8 100.2336 L139.2 101.5296 L141.6 102.9984 L144 104.64 L146.4 106.4544 L148.8 108.4416 L151.2 110.6016 L153.6 112.9344 L156 115.44 L158.4 118.1184 L160.8 120.9696 L163.2 123.9936 L165.6 127.1904 L168 130.56 L170.4 134.1024 L172.8 137.8176 L175.2 141.7056 L177.6 145.7664 L180 150 L182.4 154.4064 L184.8 158.9856 L187.2 163.7376 L189.6 168.6624 L192 173.76 L194.4 179.0304 L196.8 184.4736 L199.2 190.0896 L201.6 195.8784 L204 201.84 L206.4 207.9744 L208.8 214.2816 L211.2 220.7616 L213.6 227.4144 L216 234.24 L218.3182 241" style="fill:none; stroke:red; stroke-linejoin:round;"/>
            <line x1="100" x2="140" y1="180" style="fill:none; stroke-linejoin:round; stroke-width:1.2;" y2="80"/>
            <circle r="2" style="stroke-linecap:square; stroke:none;" cx="100" cy="180"/>
        </g>
        <g transform="matrix(1,0,0,1,1,1) scale(18,18) translate(5.7222,10.2944) scale(0.01,0.01)" style="font-size:100px; stroke-linecap:butt; font-family:'jlm_cmmi10'; stroke-linejoin:round; stroke-dasharray:2,2; stroke-miterlimit:1;">
            <path style="stroke:none;" d="M17.9062 -11.5 L52.7031 -69.9062 Q53.7031 -71.5 55.2969 -71.5938 Q56.7969 -71.5938 57 -70.5938 Q57.0938 -70.2969 57.2031 -69.2031 L63.2969 -6.7031 Q63.5938 -4.2031 64.5 -3.7031 L64.5938 -3.7031 L64.5938 -3.7031 L64.5938 -3.7031 L64.5938 -3.7031 L64.5938 -3.5938 Q65.7969 -3.0938 69.7969 -3.0938 Q72 -3.0938 72.0938 -2 Q72.0938 0 70.2969 0 L59.0938 -0.2969 L59 -0.2969 L46.5938 0 L46.5 0 Q45.0938 0 45.0938 -1.0938 Q45.9062 -3 47.5 -3.0938 Q54.7031 -3.0938 54.7031 -6.4062 Q54.7031 -6.2969 53.0938 -23.0938 L28 -23.0938 L20.4062 -10.2969 Q19 -7.7969 19 -6.5938 Q19 -3.5 23.7031 -3.0938 Q25.2969 -3.0938 25.2969 -1.9062 Q25.2969 0 23.4062 0 L13.7969 -0.2969 L13.4062 -0.2969 L5 0 L4.7969 0 Q3.5 0 3.5 -1.0938 Q3.5 -2.9062 5 -3 L5 -3.0938 L5.5938 -3.0938 Q11.9062 -3.5 15.9062 -8.5 Q16.9062 -9.7969 17.9062 -11.5 ZM29.9062 -26.2031 L52.7969 -26.2031 L49.5938 -59.2031 L29.9062 -26.2031 Z"/>
        </g>
        <g transform="matrix(1,0,0,1,1,1)" style="font-size:100px; stroke-linecap:butt; font-family:'jlm_cmmi10'; stroke-linejoin:round; stroke-dasharray:2,2; stroke-miterlimit:1;">
            <circle r="2" style="stroke:none;" cx="140" cy="80"/>
            <path d="M16 -7.7969 L29.4062 -61.5 Q29.7969 -63.0938 29.7969 -63.4062 Q29.7969 -64.5938 28.2031 -64.9062 L28.0938 -64.9062 L28 -64.9062 Q27.7031 -64.9062 27.0938 -65 Q25.4062 -65.2031 23.2969 -65.2031 Q20.7031 -65.2031 20.5 -66.2969 Q20.5 -68.0938 22 -68.2969 L22.0938 -68.2969 L22.2031 -68.2969 L23.4062 -68.2969 L57 -68.2969 Q68.5 -68.2969 73.4062 -61.5 Q75.5938 -58.2969 75.5938 -54.5 Q75.5938 -46.4062 66.5938 -40.4062 Q66.5 -40.4062 66.4062 -40.2969 Q61.0938 -36.9062 54.7031 -35.7031 Q64.9062 -34.5 68.7031 -27.7031 Q70.2031 -24.9062 70.2031 -21.5938 Q70.2031 -14.2969 63.2031 -7.9062 L63.0938 -7.7969 Q54.5 0 42.5938 0 L6.9062 0 Q4.4062 0 4.2031 -1.0938 Q4.2031 -2.9062 5.7031 -3.0938 L6.9062 -3.0938 Q13.4062 -3.0938 14.7031 -4.5 Q15.2969 -5.2031 15.9062 -7.2969 Q15.9062 -7.4062 16 -7.7969 ZM31.0938 -36.5938 L45.7031 -36.5938 Q55.5938 -36.5938 62 -43.7969 Q66.5 -48.9062 66.5 -54.9062 Q66.5 -62.2031 60.5 -64.4062 Q58.4062 -65.2031 55.5938 -65.2031 L42.7031 -65.2031 Q39.0938 -65.2031 38.2969 -64.2031 L38.2969 -64.2031 L38.2969 -64.0938 L38.2031 -64.0938 L38.2031 -64 Q37.7969 -63.4062 37.2969 -61.4062 L31.0938 -36.5938 ZM26.5938 -3.0938 L40.2031 -3.0938 Q49.7969 -3.0938 56.0938 -10.2969 Q60.9062 -15.9062 60.9062 -22.7031 Q60.9062 -30 55.7031 -33 Q53.0938 -34.4062 49.4062 -34.4062 L30.5 -34.4062 L23.5938 -6.5 Q23.0938 -4.7031 23.0938 -4.2031 Q23.0938 -3.4062 24 -3.2031 L24 -3.2031 L24 -3.2031 L24.4062 -3.2031 Q25 -3.0938 26.5938 -3.0938 Z" style="stroke:none;" transform="scale(18,18) translate(7.9444,4.7389) scale(0.01,0.01)"/>
        </g>
        <animate
          id="frame1"
          attributeName="display"
          values="inline;none;none;none;none"
          keyTimes="0;0.25;0.50;0.75;1"
          dur="2s"
          begin="0s"
          repeatCount="indefinite" />
    </g>
    
    <g>
        <g style="fill:white; stroke:white;">
            <rect x="0" width="242" height="242" y="0" style="stroke:none;"
            />
            <line transform="scale(16,16) translate(0.0625,0.0625) scale(0.0625,0.0625)" x1="10.5" x2="230.5" y1="120.5" style="stroke-linecap:butt; fill:none; stroke:black;" y2="120.5"
            />
            <line transform="scale(16,16) translate(0.0625,0.0625) scale(0.0625,0.0625)" x1="226.5" x2="230.5" y1="118.5" style="stroke-linecap:butt; fill:none; stroke:black;" y2="120.5"
            />
            <line transform="scale(16,16) translate(0.0625,0.0625) scale(0.0625,0.0625)" x1="226.5" x2="230.5" y1="122.5" style="stroke-linecap:butt; fill:none; stroke:black;" y2="120.5"
            />
        </g>
        <g style="font-size:100px; font-family:'jlm_cmmi10'; stroke-linecap:butt;" transform="scale(16,16) translate(0.0625,0.0625) scale(1.125,1.125) translate(12.1111,6.3194) scale(0.01,0.01)">
            <path style="stroke:none;" d="M33.4062 -30.2031 L30 -16.5 Q28.2969 -9.7031 28.2969 -7.7031 Q28.2969 -2.5 32 -1.4062 Q32.7969 -1.0938 33.7969 -1.0938 Q38.7969 -1.0938 42.9062 -6.0938 Q45.5938 -9.2969 47.0938 -14.2031 Q47.4062 -15.2969 48.4062 -15.2969 Q49.5938 -15.2969 49.5938 -14.2969 Q49.5938 -11.7969 46.5 -7.0938 Q41.0938 1.0938 33.5938 1.0938 Q26.7969 1.0938 23.7031 -4.5938 Q23.0938 -5.5 22.7969 -6.5 Q20.4062 -1.7031 16.2031 0.2031 Q14.2969 1.0938 12.2969 1.0938 Q6.2969 1.0938 3.9062 -2.4062 Q2.9062 -3.7031 2.9062 -5.5 Q2.9062 -9.2031 6.0938 -10.7031 Q7.2031 -11.2969 8.4062 -11.2969 Q11.4062 -11.2969 12 -8.7969 Q12.0938 -8.2969 12.0938 -7.7969 Q12.0938 -4.4062 8.7031 -2.7969 Q8.0938 -2.5 7.4062 -2.4062 Q9.5 -1.0938 12.4062 -1.0938 Q17.7031 -1.0938 20.7969 -8.2031 Q21.4062 -9.7031 21.9062 -11.5 Q27.2969 -31.9062 27.2969 -35.2969 Q26.7031 -41.5 21.9062 -42 Q16.7031 -42 12.4062 -36.7031 L12.4062 -36.5938 Q12.4062 -36.5 12.2969 -36.5 Q10.7969 -34.5 9.5938 -31.9062 Q9.0938 -30.7031 8.7031 -29.5 L8.5 -28.9062 Q8.2969 -27.7969 7.2031 -27.7969 Q6 -27.7969 6 -28.7969 Q6 -31.2969 9.2031 -36 Q14.5938 -44.2031 22.0938 -44.2031 Q29.7969 -44.2031 32.9062 -36.5938 Q36.0938 -42.7969 41.4062 -44 Q42.4062 -44.2031 43.4062 -44.2031 Q49.2969 -44.2031 51.7031 -40.9062 Q52.7031 -39.5 52.7031 -37.5938 Q52.7031 -33.5 49 -32.0938 Q48.0938 -31.7969 47.2969 -31.7969 Q44.2031 -31.7969 43.5938 -34.5 Q43.5 -34.9062 43.5 -35.2969 Q43.5 -38.2969 46.4062 -40 Q47.2969 -40.5 48.2969 -40.7031 Q46.2031 -42 43.2969 -42 Q36.5 -42 33.7031 -31.4062 Q33.5 -30.7969 33.4062 -30.2031 Z"/>
        </g>
        <g style="font-size:100px; font-family:'jlm_cmmi10'; stroke-linecap:butt;" transform="matrix(1,0,0,1,1,1)"
        >
            <line y2="124.5" style="fill:none;" x1="20.5" x2="20.5" y1="116.5"
            />
            <path d="M66.0938 -23 L11.5938 -23 Q8.4062 -23 8.2969 -25 Q8.2969 -27 11.5938 -27 L66.0938 -27 Q69.2969 -27 69.4062 -25 Q69.4062 -23 66.0938 -23 Z" style="stroke:none;" transform="scale(18,18) translate(0.5,7.7) scale(0.01,0.01)"
            />
        </g
        >
        <g style="font-size:100px; font-family:'jlm_cmr10'; stroke-linecap:butt;" transform="matrix(18,0,0,18,1,1) translate(1.2778,7.7) scale(0.01,0.01)"
        >
            <path style="stroke:none;" d="M2.7969 -16.5 L2.7969 -19.5938 L33.5 -66.5 Q34.2969 -67.7031 35.5 -67.7031 Q36.9062 -67.7031 37.0938 -66.5938 L37.0938 -65.0938 L37.0938 -19.5938 L47.0938 -19.5938 L47.0938 -16.5 L37.0938 -16.5 L37.0938 -7.7969 Q37.0938 -4.7031 38.2969 -4 Q39.7031 -3.0938 44.7031 -3.0938 L46.7969 -3.0938 L46.7969 0 Q42.7031 -0.2969 33.2031 -0.2969 Q23.7969 -0.2969 19.7031 0 L19.7031 -3.0938 L21.7969 -3.0938 Q28 -3.0938 29 -4.7969 Q29.4062 -5.5 29.4062 -7.7969 L29.4062 -16.5 L2.7969 -16.5 ZM30 -19.5938 L30 -56.9062 L5.5938 -19.5938 L30 -19.5938 Z"
            />
        </g
        >
        <g style="font-size:100px; font-family:'jlm_cmr10'; stroke-linecap:butt;" transform="matrix(1,0,0,1,1,1)"
        >
            <line y2="120.5" style="fill:none;" x1="20.5" x2="20.5" y1="116.5"
            />
            <line y2="120.5" style="fill:none;" x1="40.5" x2="40.5" y1="116.5"
            />
            <line y2="120.5" style="fill:none;" x1="60.5" x2="60.5" y1="116.5"
            />
            <line y2="120.5" style="fill:none;" x1="80.5" x2="80.5" y1="116.5"
            />
            <line y2="120.5" style="fill:none;" x1="120.5" x2="120.5" y1="116.5"
            />
            <line y2="120.5" style="fill:none;" x1="140.5" x2="140.5" y1="116.5"
            />
            <line y2="120.5" style="fill:none;" x1="160.5" x2="160.5" y1="116.5"
            />
            <line y2="124.5" style="fill:none;" x1="180.5" x2="180.5" y1="116.5"
            />
            <path d="M2.7969 -16.5 L2.7969 -19.5938 L33.5 -66.5 Q34.2969 -67.7031 35.5 -67.7031 Q36.9062 -67.7031 37.0938 -66.5938 L37.0938 -65.0938 L37.0938 -19.5938 L47.0938 -19.5938 L47.0938 -16.5 L37.0938 -16.5 L37.0938 -7.7969 Q37.0938 -4.7031 38.2969 -4 Q39.7031 -3.0938 44.7031 -3.0938 L46.7969 -3.0938 L46.7969 0 Q42.7031 -0.2969 33.2031 -0.2969 Q23.7969 -0.2969 19.7031 0 L19.7031 -3.0938 L21.7969 -3.0938 Q28 -3.0938 29 -4.7969 Q29.4062 -5.5 29.4062 -7.7969 L29.4062 -16.5 L2.7969 -16.5 ZM30 -19.5938 L30 -56.9062 L5.5938 -19.5938 L30 -19.5938 Z" style="stroke:none;" transform="scale(18,18) translate(9.7778,7.7) scale(0.01,0.01)"
            />
        </g
        >
        <g style="font-size:100px; font-family:'jlm_cmr10'; stroke-linecap:butt;" transform="matrix(1,0,0,1,1,1)"
        >
            <line y2="120.5" style="fill:none;" x1="180.5" x2="180.5" y1="116.5"
            />
            <line y2="120.5" style="fill:none;" x1="200.5" x2="200.5" y1="116.5"
            />
            <line y2="120.5" style="fill:none;" x1="220.5" x2="220.5" y1="116.5"
            />
            <line y2="230.5" style="fill:none;" x1="100.5" x2="100.5" y1="10.5"
            />
            <line y2="14.5" style="fill:none;" x1="100.5" x2="98.5" y1="10.5"
            />
            <line y2="14.5" style="fill:none;" x1="100.5" x2="102.5" y1="10.5"
            />
            <path d="M48.5938 -38.0938 L39 0.0938 Q36.5938 9.9062 28.2969 16 Q22.2031 20.5 15.5938 20.5 Q8.9062 20.5 6.0938 15.9062 Q5 14 5 11.7969 Q5 6.7031 9.0938 5.5 Q9.9062 5.2969 10.5938 5.2969 Q13.7969 5.2969 14.2031 8.0938 Q14.2969 8.4062 14.2969 8.7969 Q14.2969 11.0938 12.2969 12.9062 Q10.9062 14.0938 8 14.0938 Q9.7969 18.2969 15.5938 18.2969 Q21.7969 18.2969 26.5938 12 Q30.5 6.7969 32.7969 -2.0938 Q32.9062 -2.5 33.0938 -3.4062 Q28.5938 1.0938 23 1.0938 Q15 1.0938 12.0938 -4.7969 Q10.7969 -7.4062 10.7969 -10.7969 Q10.7969 -16.2969 16.0938 -30.5 Q16.2969 -31.0938 16.5938 -31.7969 Q18.2969 -36.4062 18.2969 -38.7969 Q18.2969 -42 15.7969 -42 Q10.2969 -42 6.7969 -32.9062 L6.7969 -32.7969 Q6.2031 -31.2969 5.7031 -29.5938 Q4.5938 -27.9062 4.0938 -27.7969 Q2.9062 -27.7969 2.9062 -28.7969 Q2.9062 -30.5938 5 -35.0938 Q9.4062 -44.2031 16.0938 -44.2031 Q21.4062 -44.2031 23.5 -39.7031 Q24.2969 -38 24.2969 -36 Q24.2969 -33.9062 22.2969 -28.7969 Q17.2031 -15.5938 17.2031 -9.2031 Q17.2031 -1.0938 23.4062 -1.0938 Q29.2031 -1.0938 33.5 -7.2969 Q34.5 -8.7969 34.7031 -9.5938 L39.2031 -27.5938 Q39.9062 -30.9062 41.2031 -35.5938 Q42.2031 -39.9062 42.5938 -41 Q43.9062 -43.0938 46.0938 -43.0938 Q48.5938 -42.5938 49 -40.4062 Q49 -39.5 48.5938 -38.0938 Z" style="stroke:none;" transform="scale(18,18) translate(5.7778,0.6528) scale(0.01,0.01)"
            />
        </g
        >
        <g style="font-size:100px; font-family:'jlm_cmmi10'; stroke-linecap:butt;" transform="matrix(1,0,0,1,1,1)"
        >
            <line y2="220.5" style="fill:none;" x1="104.5" x2="100.5" y1="220.5"
            />
            <line y2="200.5" style="fill:none;" x1="104.5" x2="96.5" y1="200.5"
            />
            <path d="M66.0938 -23 L11.5938 -23 Q8.4062 -23 8.2969 -25 Q8.2969 -27 11.5938 -27 L66.0938 -27 Q69.2969 -27 69.4062 -25 Q69.4062 -23 66.0938 -23 Z" style="stroke:none;" transform="scale(18,18) translate(3.8889,11.3667) scale(0.01,0.01)"
            />
        </g
        >
        <g style="font-size:100px; font-family:'jlm_cmr10'; stroke-linecap:butt;" transform="matrix(18,0,0,18,1,1) translate(4.6667,11.3667) scale(0.01,0.01)"
        >
            <path style="stroke:none;" d="M2.7969 -16.5 L2.7969 -19.5938 L33.5 -66.5 Q34.2969 -67.7031 35.5 -67.7031 Q36.9062 -67.7031 37.0938 -66.5938 L37.0938 -65.0938 L37.0938 -19.5938 L47.0938 -19.5938 L47.0938 -16.5 L37.0938 -16.5 L37.0938 -7.7969 Q37.0938 -4.7031 38.2969 -4 Q39.7031 -3.0938 44.7031 -3.0938 L46.7969 -3.0938 L46.7969 0 Q42.7031 -0.2969 33.2031 -0.2969 Q23.7969 -0.2969 19.7031 0 L19.7031 -3.0938 L21.7969 -3.0938 Q28 -3.0938 29 -4.7969 Q29.4062 -5.5 29.4062 -7.7969 L29.4062 -16.5 L2.7969 -16.5 ZM30 -19.5938 L30 -56.9062 L5.5938 -19.5938 L30 -19.5938 Z"
            />
        </g
        >
        <g style="font-size:100px; font-family:'jlm_cmr10'; stroke-linecap:butt;" transform="matrix(1,0,0,1,1,1)"
        >
            <line y2="200.5" style="fill:none;" x1="104.5" x2="100.5" y1="200.5"
            />
            <line y2="180.5" style="fill:none;" x1="104.5" x2="100.5" y1="180.5"
            />
            <line y2="160.5" style="fill:none;" x1="104.5" x2="100.5" y1="160.5"
            />
            <line y2="140.5" style="fill:none;" x1="104.5" x2="100.5" y1="140.5"
            />
            <line y2="100.5" style="fill:none;" x1="104.5" x2="100.5" y1="100.5"
            />
            <line y2="80.5" style="fill:none;" x1="104.5" x2="100.5" y1="80.5"
            />
            <line y2="60.5" style="fill:none;" x1="104.5" x2="100.5" y1="60.5"
            />
            <line y2="40.5" style="fill:none;" x1="104.5" x2="96.5" y1="40.5"
            />
            <path d="M2.7969 -16.5 L2.7969 -19.5938 L33.5 -66.5 Q34.2969 -67.7031 35.5 -67.7031 Q36.9062 -67.7031 37.0938 -66.5938 L37.0938 -65.0938 L37.0938 -19.5938 L47.0938 -19.5938 L47.0938 -16.5 L37.0938 -16.5 L37.0938 -7.7969 Q37.0938 -4.7031 38.2969 -4 Q39.7031 -3.0938 44.7031 -3.0938 L46.7969 -3.0938 L46.7969 0 Q42.7031 -0.2969 33.2031 -0.2969 Q23.7969 -0.2969 19.7031 0 L19.7031 -3.0938 L21.7969 -3.0938 Q28 -3.0938 29 -4.7969 Q29.4062 -5.5 29.4062 -7.7969 L29.4062 -16.5 L2.7969 -16.5 ZM30 -19.5938 L30 -56.9062 L5.5938 -19.5938 L30 -19.5938 Z" style="stroke:none;" transform="scale(18,18) translate(4.6667,2.5333) scale(0.01,0.01)"
            />
        </g
        >
        <g style="font-size:100px; font-family:'jlm_cmr10'; stroke-linecap:butt;" transform="matrix(1,0,0,1,1,1)"
        >
            <line y2="40.5" style="fill:none;" x1="104.5" x2="100.5" y1="40.5"
            />
            <line y2="20.5" style="fill:none;" x1="104.5" x2="100.5" y1="20.5"
            />
            <path d="M32.5438 -1 L33.6 2.7008 L36 10.88 L38.4 18.8288 L40.8 26.5472 L43.2 34.0352 L45.6 41.2928 L48 48.32 L50.4 55.1168 L52.8 61.6832 L55.2 68.0192 L57.6 74.1248 L60 80 L62.4 85.6448 L64.8 91.0592 L67.2 96.2432 L69.6 101.1968 L72 105.92 L74.4 110.4128 L76.8 114.6752 L79.2 118.7072 L81.6 122.5088 L84 126.08 L86.4 129.4208 L88.8 132.5312 L91.2 135.4112 L93.6 138.0608 L96 140.48 L98.4 142.6688 L100.8 144.6272 L103.2 146.3552 L105.6 147.8528 L108 149.12 L110.4 150.1568 L112.8 150.9632 L115.2 151.5392 L117.6 151.8848 L120 152 L122.4 151.8848 L124.8 151.5392 L127.2 150.9632 L129.6 150.1568 L132 149.12 L134.4 147.8528 L136.8 146.3552 L139.2 144.6272 L141.6 142.6688 L144 140.48 L146.4 138.0608 L148.8 135.4112 L151.2 132.5312 L153.6 129.4208 L156 126.08 L158.4 122.5088 L160.8 118.7072 L163.2 114.6752 L165.6 110.4128 L168 105.92 L170.4 101.1968 L172.8 96.2432 L175.2 91.0592 L177.6 85.6448 L180 80 L182.4 74.1248 L184.8 68.0192 L187.2 61.6832 L189.6 55.1168 L192 48.32 L194.4 41.2928 L196.8 34.0352 L199.2 26.5472 L201.6 18.8288 L204 10.88 L206.4 2.7008 L207.4562 -1" style="stroke-linejoin:round; fill:none;"
            />
            <path d="M32.5438 -1 L33.6 2.7008 L36 10.88 L38.4 18.8288 L40.8 26.5472 L43.2 34.0352 L45.6 41.2928 L48 48.32 L50.4 55.1168 L52.8 61.6832 L55.2 68.0192 L57.6 74.1248 L60 80 L62.4 85.6448 L64.8 91.0592 L67.2 96.2432 L69.6 101.1968 L72 105.92 L74.4 110.4128 L76.8 114.6752 L79.2 118.7072 L81.6 122.5088 L84 126.08 L86.4 129.4208 L88.8 132.5312 L91.2 135.4112 L93.6 138.0608 L96 140.48 L98.4 142.6688 L100.8 144.6272 L103.2 146.3552 L105.6 147.8528 L108 149.12 L110.4 150.1568 L112.8 150.9632 L115.2 151.5392 L117.6 151.8848 L120 152 L122.4 151.8848 L124.8 151.5392 L127.2 150.9632 L129.6 150.1568 L132 149.12 L134.4 147.8528 L136.8 146.3552 L139.2 144.6272 L141.6 142.6688 L144 140.48 L146.4 138.0608 L148.8 135.4112 L151.2 132.5312 L153.6 129.4208 L156 126.08 L158.4 122.5088 L160.8 118.7072 L163.2 114.6752 L165.6 110.4128 L168 105.92 L170.4 101.1968 L172.8 96.2432 L175.2 91.0592 L177.6 85.6448 L180 80 L182.4 74.1248 L184.8 68.0192 L187.2 61.6832 L189.6 55.1168 L192 48.32 L194.4 41.2928 L196.8 34.0352 L199.2 26.5472 L201.6 18.8288 L204 10.88 L206.4 2.7008 L207.4562 -1" style="stroke-linejoin:round; fill:none;"
            />
            <path d="M32.5438 241 L33.6 237.2992 L36 229.12 L38.4 221.1712 L40.8 213.4528 L43.2 205.9648 L45.6 198.7072 L48 191.68 L50.4 184.8832 L52.8 178.3168 L55.2 171.9808 L57.6 165.8752 L60 160 L62.4 154.3552 L64.8 148.9408 L67.2 143.7568 L69.6 138.8032 L72 134.08 L74.4 129.5872 L76.8 125.3248 L79.2 121.2928 L81.6 117.4912 L84 113.92 L86.4 110.5792 L88.8 107.4688 L91.2 104.5888 L93.6 101.9392 L96 99.52 L98.4 97.3312 L100.8 95.3728 L103.2 93.6448 L105.6 92.1472 L108 90.88 L110.4 89.8432 L112.8 89.0368 L115.2 88.4608 L117.6 88.1152 L120 88 L122.4 88.1152 L124.8 88.4608 L127.2 89.0368 L129.6 89.8432 L132 90.88 L134.4 92.1472 L136.8 93.6448 L139.2 95.3728 L141.6 97.3312 L144 99.52 L146.4 101.9392 L148.8 104.5888 L151.2 107.4688 L153.6 110.5792 L156 113.92 L158.4 117.4912 L160.8 121.2928 L163.2 125.3248 L165.6 129.5872 L168 134.08 L170.4 138.8032 L172.8 143.7568 L175.2 148.9408 L177.6 154.3552 L180 160 L182.4 165.8752 L184.8 171.9808 L187.2 178.3168 L189.6 184.8832 L192 191.68 L194.4 198.7072 L196.8 205.9648 L199.2 213.4528 L201.6 221.1712 L204 229.12 L206.4 237.2992 L207.4562 241" style="fill:none; stroke:red; stroke-linejoin:round;"
            />
            <path d="M32.5438 241 L33.6 237.2992 L36 229.12 L38.4 221.1712 L40.8 213.4528 L43.2 205.9648 L45.6 198.7072 L48 191.68 L50.4 184.8832 L52.8 178.3168 L55.2 171.9808 L57.6 165.8752 L60 160 L62.4 154.3552 L64.8 148.9408 L67.2 143.7568 L69.6 138.8032 L72 134.08 L74.4 129.5872 L76.8 125.3248 L79.2 121.2928 L81.6 117.4912 L84 113.92 L86.4 110.5792 L88.8 107.4688 L91.2 104.5888 L93.6 101.9392 L96 99.52 L98.4 97.3312 L100.8 95.3728 L103.2 93.6448 L105.6 92.1472 L108 90.88 L110.4 89.8432 L112.8 89.0368 L115.2 88.4608 L117.6 88.1152 L120 88 L122.4 88.1152 L124.8 88.4608 L127.2 89.0368 L129.6 89.8432 L132 90.88 L134.4 92.1472 L136.8 93.6448 L139.2 95.3728 L141.6 97.3312 L144 99.52 L146.4 101.9392 L148.8 104.5888 L151.2 107.4688 L153.6 110.5792 L156 113.92 L158.4 117.4912 L160.8 121.2928 L163.2 125.3248 L165.6 129.5872 L168 134.08 L170.4 138.8032 L172.8 143.7568 L175.2 148.9408 L177.6 154.3552 L180 160 L182.4 165.8752 L184.8 171.9808 L187.2 178.3168 L189.6 184.8832 L192 191.68 L194.4 198.7072 L196.8 205.9648 L199.2 213.4528 L201.6 221.1712 L204 229.12 L206.4 237.2992 L207.4562 241" style="fill:none; stroke:red; stroke-linejoin:round;"
            />
            <line x1="100" x2="140" y1="180" style="fill:none; stroke-linejoin:round; stroke-width:1.2;" y2="80"
            />
            <circle r="2" style="stroke-linecap:square; stroke:none;" cx="100" cy="180"
            />
        </g
        >
        <g transform="matrix(1,0,0,1,1,1) scale(18,18) translate(5.7222,10.2944) scale(0.01,0.01)" style="font-size:100px; stroke-linecap:butt; font-family:'jlm_cmmi10'; stroke-linejoin:round; stroke-dasharray:2,2; stroke-miterlimit:1;"
        >
            <path style="stroke:none;" d="M17.9062 -11.5 L52.7031 -69.9062 Q53.7031 -71.5 55.2969 -71.5938 Q56.7969 -71.5938 57 -70.5938 Q57.0938 -70.2969 57.2031 -69.2031 L63.2969 -6.7031 Q63.5938 -4.2031 64.5 -3.7031 L64.5938 -3.7031 L64.5938 -3.7031 L64.5938 -3.7031 L64.5938 -3.7031 L64.5938 -3.5938 Q65.7969 -3.0938 69.7969 -3.0938 Q72 -3.0938 72.0938 -2 Q72.0938 0 70.2969 0 L59.0938 -0.2969 L59 -0.2969 L46.5938 0 L46.5 0 Q45.0938 0 45.0938 -1.0938 Q45.9062 -3 47.5 -3.0938 Q54.7031 -3.0938 54.7031 -6.4062 Q54.7031 -6.2969 53.0938 -23.0938 L28 -23.0938 L20.4062 -10.2969 Q19 -7.7969 19 -6.5938 Q19 -3.5 23.7031 -3.0938 Q25.2969 -3.0938 25.2969 -1.9062 Q25.2969 0 23.4062 0 L13.7969 -0.2969 L13.4062 -0.2969 L5 0 L4.7969 0 Q3.5 0 3.5 -1.0938 Q3.5 -2.9062 5 -3 L5 -3.0938 L5.5938 -3.0938 Q11.9062 -3.5 15.9062 -8.5 Q16.9062 -9.7969 17.9062 -11.5 ZM29.9062 -26.2031 L52.7969 -26.2031 L49.5938 -59.2031 L29.9062 -26.2031 Z"
            />
        </g
        >
        <g transform="matrix(1,0,0,1,1,1)" style="font-size:100px; stroke-linecap:butt; font-family:'jlm_cmmi10'; stroke-linejoin:round; stroke-dasharray:2,2; stroke-miterlimit:1;"
        >
            <circle r="2" style="stroke:none;" cx="140" cy="80"
            />
            <path d="M16 -7.7969 L29.4062 -61.5 Q29.7969 -63.0938 29.7969 -63.4062 Q29.7969 -64.5938 28.2031 -64.9062 L28.0938 -64.9062 L28 -64.9062 Q27.7031 -64.9062 27.0938 -65 Q25.4062 -65.2031 23.2969 -65.2031 Q20.7031 -65.2031 20.5 -66.2969 Q20.5 -68.0938 22 -68.2969 L22.0938 -68.2969 L22.2031 -68.2969 L23.4062 -68.2969 L57 -68.2969 Q68.5 -68.2969 73.4062 -61.5 Q75.5938 -58.2969 75.5938 -54.5 Q75.5938 -46.4062 66.5938 -40.4062 Q66.5 -40.4062 66.4062 -40.2969 Q61.0938 -36.9062 54.7031 -35.7031 Q64.9062 -34.5 68.7031 -27.7031 Q70.2031 -24.9062 70.2031 -21.5938 Q70.2031 -14.2969 63.2031 -7.9062 L63.0938 -7.7969 Q54.5 0 42.5938 0 L6.9062 0 Q4.4062 0 4.2031 -1.0938 Q4.2031 -2.9062 5.7031 -3.0938 L6.9062 -3.0938 Q13.4062 -3.0938 14.7031 -4.5 Q15.2969 -5.2031 15.9062 -7.2969 Q15.9062 -7.4062 16 -7.7969 ZM31.0938 -36.5938 L45.7031 -36.5938 Q55.5938 -36.5938 62 -43.7969 Q66.5 -48.9062 66.5 -54.9062 Q66.5 -62.2031 60.5 -64.4062 Q58.4062 -65.2031 55.5938 -65.2031 L42.7031 -65.2031 Q39.0938 -65.2031 38.2969 -64.2031 L38.2969 -64.2031 L38.2969 -64.0938 L38.2031 -64.0938 L38.2031 -64 Q37.7969 -63.4062 37.2969 -61.4062 L31.0938 -36.5938 ZM26.5938 -3.0938 L40.2031 -3.0938 Q49.7969 -3.0938 56.0938 -10.2969 Q60.9062 -15.9062 60.9062 -22.7031 Q60.9062 -30 55.7031 -33 Q53.0938 -34.4062 49.4062 -34.4062 L30.5 -34.4062 L23.5938 -6.5 Q23.0938 -4.7031 23.0938 -4.2031 Q23.0938 -3.4062 24 -3.2031 L24 -3.2031 L24 -3.2031 L24.4062 -3.2031 Q25 -3.0938 26.5938 -3.0938 Z" style="stroke:none;" transform="scale(18,18) translate(7.9444,4.7389) scale(0.01,0.01)"
            />
        </g>
        
        <animate
          id="frame2"
          attributeName="display"
          values="none;inline;none;none;none"
          keyTimes="0;0.25;0.50;0.75;1"
          dur="2s"
          begin="0s"
          repeatCount="indefinite" />
    </g>
    
    <g>
        <g style="fill:white; stroke:white;">
            <rect x="0" width="242" height="242" y="0" style="stroke:none;"
            />
            <line transform="scale(16,16) translate(0.0625,0.0625) scale(0.0625,0.0625)" x1="10.5" x2="230.5" y1="120.5" style="stroke-linecap:butt; fill:none; stroke:black;" y2="120.5"
            />
            <line transform="scale(16,16) translate(0.0625,0.0625) scale(0.0625,0.0625)" x1="226.5" x2="230.5" y1="118.5" style="stroke-linecap:butt; fill:none; stroke:black;" y2="120.5"
            />
            <line transform="scale(16,16) translate(0.0625,0.0625) scale(0.0625,0.0625)" x1="226.5" x2="230.5" y1="122.5" style="stroke-linecap:butt; fill:none; stroke:black;" y2="120.5"
            />
        </g
        >
        <g style="font-size:100px; font-family:'jlm_cmmi10'; stroke-linecap:butt;" transform="scale(16,16) translate(0.0625,0.0625) scale(1.125,1.125) translate(12.1111,6.3194) scale(0.01,0.01)"
        >
            <path style="stroke:none;" d="M33.4062 -30.2031 L30 -16.5 Q28.2969 -9.7031 28.2969 -7.7031 Q28.2969 -2.5 32 -1.4062 Q32.7969 -1.0938 33.7969 -1.0938 Q38.7969 -1.0938 42.9062 -6.0938 Q45.5938 -9.2969 47.0938 -14.2031 Q47.4062 -15.2969 48.4062 -15.2969 Q49.5938 -15.2969 49.5938 -14.2969 Q49.5938 -11.7969 46.5 -7.0938 Q41.0938 1.0938 33.5938 1.0938 Q26.7969 1.0938 23.7031 -4.5938 Q23.0938 -5.5 22.7969 -6.5 Q20.4062 -1.7031 16.2031 0.2031 Q14.2969 1.0938 12.2969 1.0938 Q6.2969 1.0938 3.9062 -2.4062 Q2.9062 -3.7031 2.9062 -5.5 Q2.9062 -9.2031 6.0938 -10.7031 Q7.2031 -11.2969 8.4062 -11.2969 Q11.4062 -11.2969 12 -8.7969 Q12.0938 -8.2969 12.0938 -7.7969 Q12.0938 -4.4062 8.7031 -2.7969 Q8.0938 -2.5 7.4062 -2.4062 Q9.5 -1.0938 12.4062 -1.0938 Q17.7031 -1.0938 20.7969 -8.2031 Q21.4062 -9.7031 21.9062 -11.5 Q27.2969 -31.9062 27.2969 -35.2969 Q26.7031 -41.5 21.9062 -42 Q16.7031 -42 12.4062 -36.7031 L12.4062 -36.5938 Q12.4062 -36.5 12.2969 -36.5 Q10.7969 -34.5 9.5938 -31.9062 Q9.0938 -30.7031 8.7031 -29.5 L8.5 -28.9062 Q8.2969 -27.7969 7.2031 -27.7969 Q6 -27.7969 6 -28.7969 Q6 -31.2969 9.2031 -36 Q14.5938 -44.2031 22.0938 -44.2031 Q29.7969 -44.2031 32.9062 -36.5938 Q36.0938 -42.7969 41.4062 -44 Q42.4062 -44.2031 43.4062 -44.2031 Q49.2969 -44.2031 51.7031 -40.9062 Q52.7031 -39.5 52.7031 -37.5938 Q52.7031 -33.5 49 -32.0938 Q48.0938 -31.7969 47.2969 -31.7969 Q44.2031 -31.7969 43.5938 -34.5 Q43.5 -34.9062 43.5 -35.2969 Q43.5 -38.2969 46.4062 -40 Q47.2969 -40.5 48.2969 -40.7031 Q46.2031 -42 43.2969 -42 Q36.5 -42 33.7031 -31.4062 Q33.5 -30.7969 33.4062 -30.2031 Z"
            />
        </g
        >
        <g style="font-size:100px; font-family:'jlm_cmmi10'; stroke-linecap:butt;" transform="matrix(1,0,0,1,1,1)"
        >
            <line y2="124.5" style="fill:none;" x1="20.5" x2="20.5" y1="116.5"
            />
            <path d="M66.0938 -23 L11.5938 -23 Q8.4062 -23 8.2969 -25 Q8.2969 -27 11.5938 -27 L66.0938 -27 Q69.2969 -27 69.4062 -25 Q69.4062 -23 66.0938 -23 Z" style="stroke:none;" transform="scale(18,18) translate(0.5,7.7) scale(0.01,0.01)"
            />
        </g
        >
        <g style="font-size:100px; font-family:'jlm_cmr10'; stroke-linecap:butt;" transform="matrix(18,0,0,18,1,1) translate(1.2778,7.7) scale(0.01,0.01)"
        >
            <path style="stroke:none;" d="M2.7969 -16.5 L2.7969 -19.5938 L33.5 -66.5 Q34.2969 -67.7031 35.5 -67.7031 Q36.9062 -67.7031 37.0938 -66.5938 L37.0938 -65.0938 L37.0938 -19.5938 L47.0938 -19.5938 L47.0938 -16.5 L37.0938 -16.5 L37.0938 -7.7969 Q37.0938 -4.7031 38.2969 -4 Q39.7031 -3.0938 44.7031 -3.0938 L46.7969 -3.0938 L46.7969 0 Q42.7031 -0.2969 33.2031 -0.2969 Q23.7969 -0.2969 19.7031 0 L19.7031 -3.0938 L21.7969 -3.0938 Q28 -3.0938 29 -4.7969 Q29.4062 -5.5 29.4062 -7.7969 L29.4062 -16.5 L2.7969 -16.5 ZM30 -19.5938 L30 -56.9062 L5.5938 -19.5938 L30 -19.5938 Z"
            />
        </g
        >
        <g style="font-size:100px; font-family:'jlm_cmr10'; stroke-linecap:butt;" transform="matrix(1,0,0,1,1,1)"
        >
            <line y2="120.5" style="fill:none;" x1="20.5" x2="20.5" y1="116.5"
            />
            <line y2="120.5" style="fill:none;" x1="40.5" x2="40.5" y1="116.5"
            />
            <line y2="120.5" style="fill:none;" x1="60.5" x2="60.5" y1="116.5"
            />
            <line y2="120.5" style="fill:none;" x1="80.5" x2="80.5" y1="116.5"
            />
            <line y2="120.5" style="fill:none;" x1="120.5" x2="120.5" y1="116.5"
            />
            <line y2="120.5" style="fill:none;" x1="140.5" x2="140.5" y1="116.5"
            />
            <line y2="120.5" style="fill:none;" x1="160.5" x2="160.5" y1="116.5"
            />
            <line y2="124.5" style="fill:none;" x1="180.5" x2="180.5" y1="116.5"
            />
            <path d="M2.7969 -16.5 L2.7969 -19.5938 L33.5 -66.5 Q34.2969 -67.7031 35.5 -67.7031 Q36.9062 -67.7031 37.0938 -66.5938 L37.0938 -65.0938 L37.0938 -19.5938 L47.0938 -19.5938 L47.0938 -16.5 L37.0938 -16.5 L37.0938 -7.7969 Q37.0938 -4.7031 38.2969 -4 Q39.7031 -3.0938 44.7031 -3.0938 L46.7969 -3.0938 L46.7969 0 Q42.7031 -0.2969 33.2031 -0.2969 Q23.7969 -0.2969 19.7031 0 L19.7031 -3.0938 L21.7969 -3.0938 Q28 -3.0938 29 -4.7969 Q29.4062 -5.5 29.4062 -7.7969 L29.4062 -16.5 L2.7969 -16.5 ZM30 -19.5938 L30 -56.9062 L5.5938 -19.5938 L30 -19.5938 Z" style="stroke:none;" transform="scale(18,18) translate(9.7778,7.7) scale(0.01,0.01)"
            />
        </g
        >
        <g style="font-size:100px; font-family:'jlm_cmr10'; stroke-linecap:butt;" transform="matrix(1,0,0,1,1,1)"
        >
            <line y2="120.5" style="fill:none;" x1="180.5" x2="180.5" y1="116.5"
            />
            <line y2="120.5" style="fill:none;" x1="200.5" x2="200.5" y1="116.5"
            />
            <line y2="120.5" style="fill:none;" x1="220.5" x2="220.5" y1="116.5"
            />
            <line y2="230.5" style="fill:none;" x1="100.5" x2="100.5" y1="10.5"
            />
            <line y2="14.5" style="fill:none;" x1="100.5" x2="98.5" y1="10.5"
            />
            <line y2="14.5" style="fill:none;" x1="100.5" x2="102.5" y1="10.5"
            />
            <path d="M48.5938 -38.0938 L39 0.0938 Q36.5938 9.9062 28.2969 16 Q22.2031 20.5 15.5938 20.5 Q8.9062 20.5 6.0938 15.9062 Q5 14 5 11.7969 Q5 6.7031 9.0938 5.5 Q9.9062 5.2969 10.5938 5.2969 Q13.7969 5.2969 14.2031 8.0938 Q14.2969 8.4062 14.2969 8.7969 Q14.2969 11.0938 12.2969 12.9062 Q10.9062 14.0938 8 14.0938 Q9.7969 18.2969 15.5938 18.2969 Q21.7969 18.2969 26.5938 12 Q30.5 6.7969 32.7969 -2.0938 Q32.9062 -2.5 33.0938 -3.4062 Q28.5938 1.0938 23 1.0938 Q15 1.0938 12.0938 -4.7969 Q10.7969 -7.4062 10.7969 -10.7969 Q10.7969 -16.2969 16.0938 -30.5 Q16.2969 -31.0938 16.5938 -31.7969 Q18.2969 -36.4062 18.2969 -38.7969 Q18.2969 -42 15.7969 -42 Q10.2969 -42 6.7969 -32.9062 L6.7969 -32.7969 Q6.2031 -31.2969 5.7031 -29.5938 Q4.5938 -27.9062 4.0938 -27.7969 Q2.9062 -27.7969 2.9062 -28.7969 Q2.9062 -30.5938 5 -35.0938 Q9.4062 -44.2031 16.0938 -44.2031 Q21.4062 -44.2031 23.5 -39.7031 Q24.2969 -38 24.2969 -36 Q24.2969 -33.9062 22.2969 -28.7969 Q17.2031 -15.5938 17.2031 -9.2031 Q17.2031 -1.0938 23.4062 -1.0938 Q29.2031 -1.0938 33.5 -7.2969 Q34.5 -8.7969 34.7031 -9.5938 L39.2031 -27.5938 Q39.9062 -30.9062 41.2031 -35.5938 Q42.2031 -39.9062 42.5938 -41 Q43.9062 -43.0938 46.0938 -43.0938 Q48.5938 -42.5938 49 -40.4062 Q49 -39.5 48.5938 -38.0938 Z" style="stroke:none;" transform="scale(18,18) translate(5.7778,0.6528) scale(0.01,0.01)"
            />
        </g
        >
        <g style="font-size:100px; font-family:'jlm_cmmi10'; stroke-linecap:butt;" transform="matrix(1,0,0,1,1,1)"
        >
            <line y2="220.5" style="fill:none;" x1="104.5" x2="100.5" y1="220.5"
            />
            <line y2="200.5" style="fill:none;" x1="104.5" x2="96.5" y1="200.5"
            />
            <path d="M66.0938 -23 L11.5938 -23 Q8.4062 -23 8.2969 -25 Q8.2969 -27 11.5938 -27 L66.0938 -27 Q69.2969 -27 69.4062 -25 Q69.4062 -23 66.0938 -23 Z" style="stroke:none;" transform="scale(18,18) translate(3.8889,11.3667) scale(0.01,0.01)"
            />
        </g
        >
        <g style="font-size:100px; font-family:'jlm_cmr10'; stroke-linecap:butt;" transform="matrix(18,0,0,18,1,1) translate(4.6667,11.3667) scale(0.01,0.01)"
        >
            <path style="stroke:none;" d="M2.7969 -16.5 L2.7969 -19.5938 L33.5 -66.5 Q34.2969 -67.7031 35.5 -67.7031 Q36.9062 -67.7031 37.0938 -66.5938 L37.0938 -65.0938 L37.0938 -19.5938 L47.0938 -19.5938 L47.0938 -16.5 L37.0938 -16.5 L37.0938 -7.7969 Q37.0938 -4.7031 38.2969 -4 Q39.7031 -3.0938 44.7031 -3.0938 L46.7969 -3.0938 L46.7969 0 Q42.7031 -0.2969 33.2031 -0.2969 Q23.7969 -0.2969 19.7031 0 L19.7031 -3.0938 L21.7969 -3.0938 Q28 -3.0938 29 -4.7969 Q29.4062 -5.5 29.4062 -7.7969 L29.4062 -16.5 L2.7969 -16.5 ZM30 -19.5938 L30 -56.9062 L5.5938 -19.5938 L30 -19.5938 Z"
            />
        </g
        >
        <g style="font-size:100px; font-family:'jlm_cmr10'; stroke-linecap:butt;" transform="matrix(1,0,0,1,1,1)"
        >
            <line y2="200.5" style="fill:none;" x1="104.5" x2="100.5" y1="200.5"
            />
            <line y2="180.5" style="fill:none;" x1="104.5" x2="100.5" y1="180.5"
            />
            <line y2="160.5" style="fill:none;" x1="104.5" x2="100.5" y1="160.5"
            />
            <line y2="140.5" style="fill:none;" x1="104.5" x2="100.5" y1="140.5"
            />
            <line y2="100.5" style="fill:none;" x1="104.5" x2="100.5" y1="100.5"
            />
            <line y2="80.5" style="fill:none;" x1="104.5" x2="100.5" y1="80.5"
            />
            <line y2="60.5" style="fill:none;" x1="104.5" x2="100.5" y1="60.5"
            />
            <line y2="40.5" style="fill:none;" x1="104.5" x2="96.5" y1="40.5"
            />
            <path d="M2.7969 -16.5 L2.7969 -19.5938 L33.5 -66.5 Q34.2969 -67.7031 35.5 -67.7031 Q36.9062 -67.7031 37.0938 -66.5938 L37.0938 -65.0938 L37.0938 -19.5938 L47.0938 -19.5938 L47.0938 -16.5 L37.0938 -16.5 L37.0938 -7.7969 Q37.0938 -4.7031 38.2969 -4 Q39.7031 -3.0938 44.7031 -3.0938 L46.7969 -3.0938 L46.7969 0 Q42.7031 -0.2969 33.2031 -0.2969 Q23.7969 -0.2969 19.7031 0 L19.7031 -3.0938 L21.7969 -3.0938 Q28 -3.0938 29 -4.7969 Q29.4062 -5.5 29.4062 -7.7969 L29.4062 -16.5 L2.7969 -16.5 ZM30 -19.5938 L30 -56.9062 L5.5938 -19.5938 L30 -19.5938 Z" style="stroke:none;" transform="scale(18,18) translate(4.6667,2.5333) scale(0.01,0.01)"
            />
        </g
        >
        <g style="font-size:100px; font-family:'jlm_cmr10'; stroke-linecap:butt;" transform="matrix(1,0,0,1,1,1)"
        >
            <line y2="40.5" style="fill:none;" x1="104.5" x2="100.5" y1="40.5"
            />
            <line y2="20.5" style="fill:none;" x1="104.5" x2="100.5" y1="20.5"
            />
            <path d="M39.7592 -1 L40.8 3.184 L43.2 12.544 L45.6 21.616 L48 30.4 L50.4 38.896 L52.8 47.104 L55.2 55.024 L57.6 62.656 L60 70 L62.4 77.056 L64.8 83.824 L67.2 90.304 L69.6 96.496 L72 102.4 L74.4 108.016 L76.8 113.344 L79.2 118.384 L81.6 123.136 L84 127.6 L86.4 131.776 L88.8 135.664 L91.2 139.264 L93.6 142.576 L96 145.6 L98.4 148.336 L100.8 150.784 L103.2 152.944 L105.6 154.816 L108 156.4 L110.4 157.696 L112.8 158.704 L115.2 159.424 L117.6 159.856 L120 160 L122.4 159.856 L124.8 159.424 L127.2 158.704 L129.6 157.696 L132 156.4 L134.4 154.816 L136.8 152.944 L139.2 150.784 L141.6 148.336 L144 145.6 L146.4 142.576 L148.8 139.264 L151.2 135.664 L153.6 131.776 L156 127.6 L158.4 123.136 L160.8 118.384 L163.2 113.344 L165.6 108.016 L168 102.4 L170.4 96.496 L172.8 90.304 L175.2 83.824 L177.6 77.056 L180 70 L182.4 62.656 L184.8 55.024 L187.2 47.104 L189.6 38.896 L192 30.4 L194.4 21.616 L196.8 12.544 L199.2 3.184 L200.2408 -1" style="stroke-linejoin:round; fill:none;"
            />
            <path d="M39.7592 -1 L40.8 3.184 L43.2 12.544 L45.6 21.616 L48 30.4 L50.4 38.896 L52.8 47.104 L55.2 55.024 L57.6 62.656 L60 70 L62.4 77.056 L64.8 83.824 L67.2 90.304 L69.6 96.496 L72 102.4 L74.4 108.016 L76.8 113.344 L79.2 118.384 L81.6 123.136 L84 127.6 L86.4 131.776 L88.8 135.664 L91.2 139.264 L93.6 142.576 L96 145.6 L98.4 148.336 L100.8 150.784 L103.2 152.944 L105.6 154.816 L108 156.4 L110.4 157.696 L112.8 158.704 L115.2 159.424 L117.6 159.856 L120 160 L122.4 159.856 L124.8 159.424 L127.2 158.704 L129.6 157.696 L132 156.4 L134.4 154.816 L136.8 152.944 L139.2 150.784 L141.6 148.336 L144 145.6 L146.4 142.576 L148.8 139.264 L151.2 135.664 L153.6 131.776 L156 127.6 L158.4 123.136 L160.8 118.384 L163.2 113.344 L165.6 108.016 L168 102.4 L170.4 96.496 L172.8 90.304 L175.2 83.824 L177.6 77.056 L180 70 L182.4 62.656 L184.8 55.024 L187.2 47.104 L189.6 38.896 L192 30.4 L194.4 21.616 L196.8 12.544 L199.2 3.184 L200.2408 -1" style="stroke-linejoin:round; fill:none;"
            />
            <path d="M39.7592 241 L40.8 236.816 L43.2 227.456 L45.6 218.384 L48 209.6 L50.4 201.104 L52.8 192.896 L55.2 184.976 L57.6 177.344 L60 170 L62.4 162.944 L64.8 156.176 L67.2 149.696 L69.6 143.504 L72 137.6 L74.4 131.984 L76.8 126.656 L79.2 121.616 L81.6 116.864 L84 112.4 L86.4 108.224 L88.8 104.336 L91.2 100.736 L93.6 97.424 L96 94.4 L98.4 91.664 L100.8 89.216 L103.2 87.056 L105.6 85.184 L108 83.6 L110.4 82.304 L112.8 81.296 L115.2 80.576 L117.6 80.144 L120 80 L122.4 80.144 L124.8 80.576 L127.2 81.296 L129.6 82.304 L132 83.6 L134.4 85.184 L136.8 87.056 L139.2 89.216 L141.6 91.664 L144 94.4 L146.4 97.424 L148.8 100.736 L151.2 104.336 L153.6 108.224 L156 112.4 L158.4 116.864 L160.8 121.616 L163.2 126.656 L165.6 131.984 L168 137.6 L170.4 143.504 L172.8 149.696 L175.2 156.176 L177.6 162.944 L180 170 L182.4 177.344 L184.8 184.976 L187.2 192.896 L189.6 201.104 L192 209.6 L194.4 218.384 L196.8 227.456 L199.2 236.816 L200.2408 241" style="fill:none; stroke:red; stroke-linejoin:round;"
            />
            <path d="M39.7592 241 L40.8 236.816 L43.2 227.456 L45.6 218.384 L48 209.6 L50.4 201.104 L52.8 192.896 L55.2 184.976 L57.6 177.344 L60 170 L62.4 162.944 L64.8 156.176 L67.2 149.696 L69.6 143.504 L72 137.6 L74.4 131.984 L76.8 126.656 L79.2 121.616 L81.6 116.864 L84 112.4 L86.4 108.224 L88.8 104.336 L91.2 100.736 L93.6 97.424 L96 94.4 L98.4 91.664 L100.8 89.216 L103.2 87.056 L105.6 85.184 L108 83.6 L110.4 82.304 L112.8 81.296 L115.2 80.576 L117.6 80.144 L120 80 L122.4 80.144 L124.8 80.576 L127.2 81.296 L129.6 82.304 L132 83.6 L134.4 85.184 L136.8 87.056 L139.2 89.216 L141.6 91.664 L144 94.4 L146.4 97.424 L148.8 100.736 L151.2 104.336 L153.6 108.224 L156 112.4 L158.4 116.864 L160.8 121.616 L163.2 126.656 L165.6 131.984 L168 137.6 L170.4 143.504 L172.8 149.696 L175.2 156.176 L177.6 162.944 L180 170 L182.4 177.344 L184.8 184.976 L187.2 192.896 L189.6 201.104 L192 209.6 L194.4 218.384 L196.8 227.456 L199.2 236.816 L200.2408 241" style="fill:none; stroke:red; stroke-linejoin:round;"
            />
            <line x1="100" x2="140" y1="180" style="fill:none; stroke-linejoin:round; stroke-width:1.2;" y2="80"
            />
            <circle r="2" style="stroke-linecap:square; stroke:none;" cx="100" cy="180"
            />
        </g
        >
        <g transform="matrix(1,0,0,1,1,1) scale(18,18) translate(5.7222,10.2944) scale(0.01,0.01)" style="font-size:100px; stroke-linecap:butt; font-family:'jlm_cmmi10'; stroke-linejoin:round; stroke-dasharray:2,2; stroke-miterlimit:1;"
        >
            <path style="stroke:none;" d="M17.9062 -11.5 L52.7031 -69.9062 Q53.7031 -71.5 55.2969 -71.5938 Q56.7969 -71.5938 57 -70.5938 Q57.0938 -70.2969 57.2031 -69.2031 L63.2969 -6.7031 Q63.5938 -4.2031 64.5 -3.7031 L64.5938 -3.7031 L64.5938 -3.7031 L64.5938 -3.7031 L64.5938 -3.7031 L64.5938 -3.5938 Q65.7969 -3.0938 69.7969 -3.0938 Q72 -3.0938 72.0938 -2 Q72.0938 0 70.2969 0 L59.0938 -0.2969 L59 -0.2969 L46.5938 0 L46.5 0 Q45.0938 0 45.0938 -1.0938 Q45.9062 -3 47.5 -3.0938 Q54.7031 -3.0938 54.7031 -6.4062 Q54.7031 -6.2969 53.0938 -23.0938 L28 -23.0938 L20.4062 -10.2969 Q19 -7.7969 19 -6.5938 Q19 -3.5 23.7031 -3.0938 Q25.2969 -3.0938 25.2969 -1.9062 Q25.2969 0 23.4062 0 L13.7969 -0.2969 L13.4062 -0.2969 L5 0 L4.7969 0 Q3.5 0 3.5 -1.0938 Q3.5 -2.9062 5 -3 L5 -3.0938 L5.5938 -3.0938 Q11.9062 -3.5 15.9062 -8.5 Q16.9062 -9.7969 17.9062 -11.5 ZM29.9062 -26.2031 L52.7969 -26.2031 L49.5938 -59.2031 L29.9062 -26.2031 Z"
            />
        </g
        >
        <g transform="matrix(1,0,0,1,1,1)" style="font-size:100px; stroke-linecap:butt; font-family:'jlm_cmmi10'; stroke-linejoin:round; stroke-dasharray:2,2; stroke-miterlimit:1;"
        >
            <circle r="2" style="stroke:none;" cx="140" cy="80"
            />
            <path d="M16 -7.7969 L29.4062 -61.5 Q29.7969 -63.0938 29.7969 -63.4062 Q29.7969 -64.5938 28.2031 -64.9062 L28.0938 -64.9062 L28 -64.9062 Q27.7031 -64.9062 27.0938 -65 Q25.4062 -65.2031 23.2969 -65.2031 Q20.7031 -65.2031 20.5 -66.2969 Q20.5 -68.0938 22 -68.2969 L22.0938 -68.2969 L22.2031 -68.2969 L23.4062 -68.2969 L57 -68.2969 Q68.5 -68.2969 73.4062 -61.5 Q75.5938 -58.2969 75.5938 -54.5 Q75.5938 -46.4062 66.5938 -40.4062 Q66.5 -40.4062 66.4062 -40.2969 Q61.0938 -36.9062 54.7031 -35.7031 Q64.9062 -34.5 68.7031 -27.7031 Q70.2031 -24.9062 70.2031 -21.5938 Q70.2031 -14.2969 63.2031 -7.9062 L63.0938 -7.7969 Q54.5 0 42.5938 0 L6.9062 0 Q4.4062 0 4.2031 -1.0938 Q4.2031 -2.9062 5.7031 -3.0938 L6.9062 -3.0938 Q13.4062 -3.0938 14.7031 -4.5 Q15.2969 -5.2031 15.9062 -7.2969 Q15.9062 -7.4062 16 -7.7969 ZM31.0938 -36.5938 L45.7031 -36.5938 Q55.5938 -36.5938 62 -43.7969 Q66.5 -48.9062 66.5 -54.9062 Q66.5 -62.2031 60.5 -64.4062 Q58.4062 -65.2031 55.5938 -65.2031 L42.7031 -65.2031 Q39.0938 -65.2031 38.2969 -64.2031 L38.2969 -64.2031 L38.2969 -64.0938 L38.2031 -64.0938 L38.2031 -64 Q37.7969 -63.4062 37.2969 -61.4062 L31.0938 -36.5938 ZM26.5938 -3.0938 L40.2031 -3.0938 Q49.7969 -3.0938 56.0938 -10.2969 Q60.9062 -15.9062 60.9062 -22.7031 Q60.9062 -30 55.7031 -33 Q53.0938 -34.4062 49.4062 -34.4062 L30.5 -34.4062 L23.5938 -6.5 Q23.0938 -4.7031 23.0938 -4.2031 Q23.0938 -3.4062 24 -3.2031 L24 -3.2031 L24 -3.2031 L24.4062 -3.2031 Q25 -3.0938 26.5938 -3.0938 Z" style="stroke:none;" transform="scale(18,18) translate(7.9444,4.7389) scale(0.01,0.01)"
            />
        </g>
        <animate
          id="frame3"
          attributeName="display"
          values="none;none;inline;none;none"
          keyTimes="0;0.25;0.50;0.75;1"
          dur="2s"
          begin="0s"
          repeatCount="indefinite" />
    </g>
    
    <g>
        <g style="fill:white; stroke:white;">
            <rect x="0" width="242" height="242" y="0" style="stroke:none;"
            />
            <line transform="scale(16,16) translate(0.0625,0.0625) scale(0.0625,0.0625)" x1="10.5" x2="230.5" y1="120.5" style="stroke-linecap:butt; fill:none; stroke:black;" y2="120.5"
            />
            <line transform="scale(16,16) translate(0.0625,0.0625) scale(0.0625,0.0625)" x1="226.5" x2="230.5" y1="118.5" style="stroke-linecap:butt; fill:none; stroke:black;" y2="120.5"
            />
            <line transform="scale(16,16) translate(0.0625,0.0625) scale(0.0625,0.0625)" x1="226.5" x2="230.5" y1="122.5" style="stroke-linecap:butt; fill:none; stroke:black;" y2="120.5"
            />
        </g
        >
        <g style="font-size:100px; font-family:'jlm_cmmi10'; stroke-linecap:butt;" transform="scale(16,16) translate(0.0625,0.0625) scale(1.125,1.125) translate(12.1111,6.3194) scale(0.01,0.01)"
        >
            <path style="stroke:none;" d="M33.4062 -30.2031 L30 -16.5 Q28.2969 -9.7031 28.2969 -7.7031 Q28.2969 -2.5 32 -1.4062 Q32.7969 -1.0938 33.7969 -1.0938 Q38.7969 -1.0938 42.9062 -6.0938 Q45.5938 -9.2969 47.0938 -14.2031 Q47.4062 -15.2969 48.4062 -15.2969 Q49.5938 -15.2969 49.5938 -14.2969 Q49.5938 -11.7969 46.5 -7.0938 Q41.0938 1.0938 33.5938 1.0938 Q26.7969 1.0938 23.7031 -4.5938 Q23.0938 -5.5 22.7969 -6.5 Q20.4062 -1.7031 16.2031 0.2031 Q14.2969 1.0938 12.2969 1.0938 Q6.2969 1.0938 3.9062 -2.4062 Q2.9062 -3.7031 2.9062 -5.5 Q2.9062 -9.2031 6.0938 -10.7031 Q7.2031 -11.2969 8.4062 -11.2969 Q11.4062 -11.2969 12 -8.7969 Q12.0938 -8.2969 12.0938 -7.7969 Q12.0938 -4.4062 8.7031 -2.7969 Q8.0938 -2.5 7.4062 -2.4062 Q9.5 -1.0938 12.4062 -1.0938 Q17.7031 -1.0938 20.7969 -8.2031 Q21.4062 -9.7031 21.9062 -11.5 Q27.2969 -31.9062 27.2969 -35.2969 Q26.7031 -41.5 21.9062 -42 Q16.7031 -42 12.4062 -36.7031 L12.4062 -36.5938 Q12.4062 -36.5 12.2969 -36.5 Q10.7969 -34.5 9.5938 -31.9062 Q9.0938 -30.7031 8.7031 -29.5 L8.5 -28.9062 Q8.2969 -27.7969 7.2031 -27.7969 Q6 -27.7969 6 -28.7969 Q6 -31.2969 9.2031 -36 Q14.5938 -44.2031 22.0938 -44.2031 Q29.7969 -44.2031 32.9062 -36.5938 Q36.0938 -42.7969 41.4062 -44 Q42.4062 -44.2031 43.4062 -44.2031 Q49.2969 -44.2031 51.7031 -40.9062 Q52.7031 -39.5 52.7031 -37.5938 Q52.7031 -33.5 49 -32.0938 Q48.0938 -31.7969 47.2969 -31.7969 Q44.2031 -31.7969 43.5938 -34.5 Q43.5 -34.9062 43.5 -35.2969 Q43.5 -38.2969 46.4062 -40 Q47.2969 -40.5 48.2969 -40.7031 Q46.2031 -42 43.2969 -42 Q36.5 -42 33.7031 -31.4062 Q33.5 -30.7969 33.4062 -30.2031 Z"
            />
        </g
        >
        <g style="font-size:100px; font-family:'jlm_cmmi10'; stroke-linecap:butt;" transform="matrix(1,0,0,1,1,1)"
        >
            <line y2="124.5" style="fill:none;" x1="20.5" x2="20.5" y1="116.5"
            />
            <path d="M66.0938 -23 L11.5938 -23 Q8.4062 -23 8.2969 -25 Q8.2969 -27 11.5938 -27 L66.0938 -27 Q69.2969 -27 69.4062 -25 Q69.4062 -23 66.0938 -23 Z" style="stroke:none;" transform="scale(18,18) translate(0.5,7.7) scale(0.01,0.01)"
            />
        </g
        >
        <g style="font-size:100px; font-family:'jlm_cmr10'; stroke-linecap:butt;" transform="matrix(18,0,0,18,1,1) translate(1.2778,7.7) scale(0.01,0.01)"
        >
            <path style="stroke:none;" d="M2.7969 -16.5 L2.7969 -19.5938 L33.5 -66.5 Q34.2969 -67.7031 35.5 -67.7031 Q36.9062 -67.7031 37.0938 -66.5938 L37.0938 -65.0938 L37.0938 -19.5938 L47.0938 -19.5938 L47.0938 -16.5 L37.0938 -16.5 L37.0938 -7.7969 Q37.0938 -4.7031 38.2969 -4 Q39.7031 -3.0938 44.7031 -3.0938 L46.7969 -3.0938 L46.7969 0 Q42.7031 -0.2969 33.2031 -0.2969 Q23.7969 -0.2969 19.7031 0 L19.7031 -3.0938 L21.7969 -3.0938 Q28 -3.0938 29 -4.7969 Q29.4062 -5.5 29.4062 -7.7969 L29.4062 -16.5 L2.7969 -16.5 ZM30 -19.5938 L30 -56.9062 L5.5938 -19.5938 L30 -19.5938 Z"
            />
        </g
        >
        <g style="font-size:100px; font-family:'jlm_cmr10'; stroke-linecap:butt;" transform="matrix(1,0,0,1,1,1)"
        >
            <line y2="120.5" style="fill:none;" x1="20.5" x2="20.5" y1="116.5"
            />
            <line y2="120.5" style="fill:none;" x1="40.5" x2="40.5" y1="116.5"
            />
            <line y2="120.5" style="fill:none;" x1="60.5" x2="60.5" y1="116.5"
            />
            <line y2="120.5" style="fill:none;" x1="80.5" x2="80.5" y1="116.5"
            />
            <line y2="120.5" style="fill:none;" x1="120.5" x2="120.5" y1="116.5"
            />
            <line y2="120.5" style="fill:none;" x1="140.5" x2="140.5" y1="116.5"
            />
            <line y2="120.5" style="fill:none;" x1="160.5" x2="160.5" y1="116.5"
            />
            <line y2="124.5" style="fill:none;" x1="180.5" x2="180.5" y1="116.5"
            />
            <path d="M2.7969 -16.5 L2.7969 -19.5938 L33.5 -66.5 Q34.2969 -67.7031 35.5 -67.7031 Q36.9062 -67.7031 37.0938 -66.5938 L37.0938 -65.0938 L37.0938 -19.5938 L47.0938 -19.5938 L47.0938 -16.5 L37.0938 -16.5 L37.0938 -7.7969 Q37.0938 -4.7031 38.2969 -4 Q39.7031 -3.0938 44.7031 -3.0938 L46.7969 -3.0938 L46.7969 0 Q42.7031 -0.2969 33.2031 -0.2969 Q23.7969 -0.2969 19.7031 0 L19.7031 -3.0938 L21.7969 -3.0938 Q28 -3.0938 29 -4.7969 Q29.4062 -5.5 29.4062 -7.7969 L29.4062 -16.5 L2.7969 -16.5 ZM30 -19.5938 L30 -56.9062 L5.5938 -19.5938 L30 -19.5938 Z" style="stroke:none;" transform="scale(18,18) translate(9.7778,7.7) scale(0.01,0.01)"
            />
        </g
        >
        <g style="font-size:100px; font-family:'jlm_cmr10'; stroke-linecap:butt;" transform="matrix(1,0,0,1,1,1)"
        >
            <line y2="120.5" style="fill:none;" x1="180.5" x2="180.5" y1="116.5"
            />
            <line y2="120.5" style="fill:none;" x1="200.5" x2="200.5" y1="116.5"
            />
            <line y2="120.5" style="fill:none;" x1="220.5" x2="220.5" y1="116.5"
            />
            <line y2="230.5" style="fill:none;" x1="100.5" x2="100.5" y1="10.5"
            />
            <line y2="14.5" style="fill:none;" x1="100.5" x2="98.5" y1="10.5"
            />
            <line y2="14.5" style="fill:none;" x1="100.5" x2="102.5" y1="10.5"
            />
            <path d="M48.5938 -38.0938 L39 0.0938 Q36.5938 9.9062 28.2969 16 Q22.2031 20.5 15.5938 20.5 Q8.9062 20.5 6.0938 15.9062 Q5 14 5 11.7969 Q5 6.7031 9.0938 5.5 Q9.9062 5.2969 10.5938 5.2969 Q13.7969 5.2969 14.2031 8.0938 Q14.2969 8.4062 14.2969 8.7969 Q14.2969 11.0938 12.2969 12.9062 Q10.9062 14.0938 8 14.0938 Q9.7969 18.2969 15.5938 18.2969 Q21.7969 18.2969 26.5938 12 Q30.5 6.7969 32.7969 -2.0938 Q32.9062 -2.5 33.0938 -3.4062 Q28.5938 1.0938 23 1.0938 Q15 1.0938 12.0938 -4.7969 Q10.7969 -7.4062 10.7969 -10.7969 Q10.7969 -16.2969 16.0938 -30.5 Q16.2969 -31.0938 16.5938 -31.7969 Q18.2969 -36.4062 18.2969 -38.7969 Q18.2969 -42 15.7969 -42 Q10.2969 -42 6.7969 -32.9062 L6.7969 -32.7969 Q6.2031 -31.2969 5.7031 -29.5938 Q4.5938 -27.9062 4.0938 -27.7969 Q2.9062 -27.7969 2.9062 -28.7969 Q2.9062 -30.5938 5 -35.0938 Q9.4062 -44.2031 16.0938 -44.2031 Q21.4062 -44.2031 23.5 -39.7031 Q24.2969 -38 24.2969 -36 Q24.2969 -33.9062 22.2969 -28.7969 Q17.2031 -15.5938 17.2031 -9.2031 Q17.2031 -1.0938 23.4062 -1.0938 Q29.2031 -1.0938 33.5 -7.2969 Q34.5 -8.7969 34.7031 -9.5938 L39.2031 -27.5938 Q39.9062 -30.9062 41.2031 -35.5938 Q42.2031 -39.9062 42.5938 -41 Q43.9062 -43.0938 46.0938 -43.0938 Q48.5938 -42.5938 49 -40.4062 Q49 -39.5 48.5938 -38.0938 Z" style="stroke:none;" transform="scale(18,18) translate(5.7778,0.6528) scale(0.01,0.01)"
            />
        </g
        >
        <g style="font-size:100px; font-family:'jlm_cmmi10'; stroke-linecap:butt;" transform="matrix(1,0,0,1,1,1)"
        >
            <line y2="220.5" style="fill:none;" x1="104.5" x2="100.5" y1="220.5"
            />
            <line y2="200.5" style="fill:none;" x1="104.5" x2="96.5" y1="200.5"
            />
            <path d="M66.0938 -23 L11.5938 -23 Q8.4062 -23 8.2969 -25 Q8.2969 -27 11.5938 -27 L66.0938 -27 Q69.2969 -27 69.4062 -25 Q69.4062 -23 66.0938 -23 Z" style="stroke:none;" transform="scale(18,18) translate(3.8889,11.3667) scale(0.01,0.01)"
            />
        </g
        >
        <g style="font-size:100px; font-family:'jlm_cmr10'; stroke-linecap:butt;" transform="matrix(18,0,0,18,1,1) translate(4.6667,11.3667) scale(0.01,0.01)"
        >
            <path style="stroke:none;" d="M2.7969 -16.5 L2.7969 -19.5938 L33.5 -66.5 Q34.2969 -67.7031 35.5 -67.7031 Q36.9062 -67.7031 37.0938 -66.5938 L37.0938 -65.0938 L37.0938 -19.5938 L47.0938 -19.5938 L47.0938 -16.5 L37.0938 -16.5 L37.0938 -7.7969 Q37.0938 -4.7031 38.2969 -4 Q39.7031 -3.0938 44.7031 -3.0938 L46.7969 -3.0938 L46.7969 0 Q42.7031 -0.2969 33.2031 -0.2969 Q23.7969 -0.2969 19.7031 0 L19.7031 -3.0938 L21.7969 -3.0938 Q28 -3.0938 29 -4.7969 Q29.4062 -5.5 29.4062 -7.7969 L29.4062 -16.5 L2.7969 -16.5 ZM30 -19.5938 L30 -56.9062 L5.5938 -19.5938 L30 -19.5938 Z"
            />
        </g
        >
        <g style="font-size:100px; font-family:'jlm_cmr10'; stroke-linecap:butt;" transform="matrix(1,0,0,1,1,1)"
        >
            <line y2="200.5" style="fill:none;" x1="104.5" x2="100.5" y1="200.5"
            />
            <line y2="180.5" style="fill:none;" x1="104.5" x2="100.5" y1="180.5"
            />
            <line y2="160.5" style="fill:none;" x1="104.5" x2="100.5" y1="160.5"
            />
            <line y2="140.5" style="fill:none;" x1="104.5" x2="100.5" y1="140.5"
            />
            <line y2="100.5" style="fill:none;" x1="104.5" x2="100.5" y1="100.5"
            />
            <line y2="80.5" style="fill:none;" x1="104.5" x2="100.5" y1="80.5"
            />
            <line y2="60.5" style="fill:none;" x1="104.5" x2="100.5" y1="60.5"
            />
            <line y2="40.5" style="fill:none;" x1="104.5" x2="96.5" y1="40.5"
            />
            <path d="M2.7969 -16.5 L2.7969 -19.5938 L33.5 -66.5 Q34.2969 -67.7031 35.5 -67.7031 Q36.9062 -67.7031 37.0938 -66.5938 L37.0938 -65.0938 L37.0938 -19.5938 L47.0938 -19.5938 L47.0938 -16.5 L37.0938 -16.5 L37.0938 -7.7969 Q37.0938 -4.7031 38.2969 -4 Q39.7031 -3.0938 44.7031 -3.0938 L46.7969 -3.0938 L46.7969 0 Q42.7031 -0.2969 33.2031 -0.2969 Q23.7969 -0.2969 19.7031 0 L19.7031 -3.0938 L21.7969 -3.0938 Q28 -3.0938 29 -4.7969 Q29.4062 -5.5 29.4062 -7.7969 L29.4062 -16.5 L2.7969 -16.5 ZM30 -19.5938 L30 -56.9062 L5.5938 -19.5938 L30 -19.5938 Z" style="stroke:none;" transform="scale(18,18) translate(4.6667,2.5333) scale(0.01,0.01)"
            />
        </g
        >
        <g style="font-size:100px; font-family:'jlm_cmr10'; stroke-linecap:butt;" transform="matrix(1,0,0,1,1,1)"
        >
            <line y2="40.5" style="fill:none;" x1="104.5" x2="100.5" y1="40.5"
            />
            <line y2="20.5" style="fill:none;" x1="104.5" x2="100.5" y1="20.5"
            />
            <path d="M44.952 -1 L45.6 1.9392 L48 12.48 L50.4 22.6752 L52.8 32.5248 L55.2 42.0288 L57.6 51.1872 L60 60 L62.4 68.4672 L64.8 76.5888 L67.2 84.3648 L69.6 91.7952 L72 98.88 L74.4 105.6192 L76.8 112.0128 L79.2 118.0608 L81.6 123.7632 L84 129.12 L86.4 134.1312 L88.8 138.7968 L91.2 143.1168 L93.6 147.0912 L96 150.72 L98.4 154.0032 L100.8 156.9408 L103.2 159.5328 L105.6 161.7792 L108 163.68 L110.4 165.2352 L112.8 166.4448 L115.2 167.3088 L117.6 167.8272 L120 168 L122.4 167.8272 L124.8 167.3088 L127.2 166.4448 L129.6 165.2352 L132 163.68 L134.4 161.7792 L136.8 159.5328 L139.2 156.9408 L141.6 154.0032 L144 150.72 L146.4 147.0912 L148.8 143.1168 L151.2 138.7968 L153.6 134.1312 L156 129.12 L158.4 123.7632 L160.8 118.0608 L163.2 112.0128 L165.6 105.6192 L168 98.88 L170.4 91.7952 L172.8 84.3648 L175.2 76.5888 L177.6 68.4672 L180 60 L182.4 51.1872 L184.8 42.0288 L187.2 32.5248 L189.6 22.6752 L192 12.48 L194.4 1.9392 L195.048 -1" style="stroke-linejoin:round; fill:none;"
            />
            <path d="M44.952 -1 L45.6 1.9392 L48 12.48 L50.4 22.6752 L52.8 32.5248 L55.2 42.0288 L57.6 51.1872 L60 60 L62.4 68.4672 L64.8 76.5888 L67.2 84.3648 L69.6 91.7952 L72 98.88 L74.4 105.6192 L76.8 112.0128 L79.2 118.0608 L81.6 123.7632 L84 129.12 L86.4 134.1312 L88.8 138.7968 L91.2 143.1168 L93.6 147.0912 L96 150.72 L98.4 154.0032 L100.8 156.9408 L103.2 159.5328 L105.6 161.7792 L108 163.68 L110.4 165.2352 L112.8 166.4448 L115.2 167.3088 L117.6 167.8272 L120 168 L122.4 167.8272 L124.8 167.3088 L127.2 166.4448 L129.6 165.2352 L132 163.68 L134.4 161.7792 L136.8 159.5328 L139.2 156.9408 L141.6 154.0032 L144 150.72 L146.4 147.0912 L148.8 143.1168 L151.2 138.7968 L153.6 134.1312 L156 129.12 L158.4 123.7632 L160.8 118.0608 L163.2 112.0128 L165.6 105.6192 L168 98.88 L170.4 91.7952 L172.8 84.3648 L175.2 76.5888 L177.6 68.4672 L180 60 L182.4 51.1872 L184.8 42.0288 L187.2 32.5248 L189.6 22.6752 L192 12.48 L194.4 1.9392 L195.048 -1" style="stroke-linejoin:round; fill:none;"
            />
            <path d="M44.952 241 L45.6 238.0608 L48 227.52 L50.4 217.3248 L52.8 207.4752 L55.2 197.9712 L57.6 188.8128 L60 180 L62.4 171.5328 L64.8 163.4112 L67.2 155.6352 L69.6 148.2048 L72 141.12 L74.4 134.3808 L76.8 127.9872 L79.2 121.9392 L81.6 116.2368 L84 110.88 L86.4 105.8688 L88.8 101.2032 L91.2 96.8832 L93.6 92.9088 L96 89.28 L98.4 85.9968 L100.8 83.0592 L103.2 80.4672 L105.6 78.2208 L108 76.32 L110.4 74.7648 L112.8 73.5552 L115.2 72.6912 L117.6 72.1728 L120 72 L122.4 72.1728 L124.8 72.6912 L127.2 73.5552 L129.6 74.7648 L132 76.32 L134.4 78.2208 L136.8 80.4672 L139.2 83.0592 L141.6 85.9968 L144 89.28 L146.4 92.9088 L148.8 96.8832 L151.2 101.2032 L153.6 105.8688 L156 110.88 L158.4 116.2368 L160.8 121.9392 L163.2 127.9872 L165.6 134.3808 L168 141.12 L170.4 148.2048 L172.8 155.6352 L175.2 163.4112 L177.6 171.5328 L180 180 L182.4 188.8128 L184.8 197.9712 L187.2 207.4752 L189.6 217.3248 L192 227.52 L194.4 238.0608 L195.048 241" style="fill:none; stroke:red; stroke-linejoin:round;"
            />
            <path d="M44.952 241 L45.6 238.0608 L48 227.52 L50.4 217.3248 L52.8 207.4752 L55.2 197.9712 L57.6 188.8128 L60 180 L62.4 171.5328 L64.8 163.4112 L67.2 155.6352 L69.6 148.2048 L72 141.12 L74.4 134.3808 L76.8 127.9872 L79.2 121.9392 L81.6 116.2368 L84 110.88 L86.4 105.8688 L88.8 101.2032 L91.2 96.8832 L93.6 92.9088 L96 89.28 L98.4 85.9968 L100.8 83.0592 L103.2 80.4672 L105.6 78.2208 L108 76.32 L110.4 74.7648 L112.8 73.5552 L115.2 72.6912 L117.6 72.1728 L120 72 L122.4 72.1728 L124.8 72.6912 L127.2 73.5552 L129.6 74.7648 L132 76.32 L134.4 78.2208 L136.8 80.4672 L139.2 83.0592 L141.6 85.9968 L144 89.28 L146.4 92.9088 L148.8 96.8832 L151.2 101.2032 L153.6 105.8688 L156 110.88 L158.4 116.2368 L160.8 121.9392 L163.2 127.9872 L165.6 134.3808 L168 141.12 L170.4 148.2048 L172.8 155.6352 L175.2 163.4112 L177.6 171.5328 L180 180 L182.4 188.8128 L184.8 197.9712 L187.2 207.4752 L189.6 217.3248 L192 227.52 L194.4 238.0608 L195.048 241" style="fill:none; stroke:red; stroke-linejoin:round;"
            />
            <line x1="100" x2="140" y1="180" style="fill:none; stroke-linejoin:round; stroke-width:1.2;" y2="80"
            />
            <circle r="2" style="stroke-linecap:square; stroke:none;" cx="100" cy="180"
            />
        </g
        >
        <g transform="matrix(1,0,0,1,1,1) scale(18,18) translate(5.7222,10.2944) scale(0.01,0.01)" style="font-size:100px; stroke-linecap:butt; font-family:'jlm_cmmi10'; stroke-linejoin:round; stroke-dasharray:2,2; stroke-miterlimit:1;"
        >
            <path style="stroke:none;" d="M17.9062 -11.5 L52.7031 -69.9062 Q53.7031 -71.5 55.2969 -71.5938 Q56.7969 -71.5938 57 -70.5938 Q57.0938 -70.2969 57.2031 -69.2031 L63.2969 -6.7031 Q63.5938 -4.2031 64.5 -3.7031 L64.5938 -3.7031 L64.5938 -3.7031 L64.5938 -3.7031 L64.5938 -3.7031 L64.5938 -3.5938 Q65.7969 -3.0938 69.7969 -3.0938 Q72 -3.0938 72.0938 -2 Q72.0938 0 70.2969 0 L59.0938 -0.2969 L59 -0.2969 L46.5938 0 L46.5 0 Q45.0938 0 45.0938 -1.0938 Q45.9062 -3 47.5 -3.0938 Q54.7031 -3.0938 54.7031 -6.4062 Q54.7031 -6.2969 53.0938 -23.0938 L28 -23.0938 L20.4062 -10.2969 Q19 -7.7969 19 -6.5938 Q19 -3.5 23.7031 -3.0938 Q25.2969 -3.0938 25.2969 -1.9062 Q25.2969 0 23.4062 0 L13.7969 -0.2969 L13.4062 -0.2969 L5 0 L4.7969 0 Q3.5 0 3.5 -1.0938 Q3.5 -2.9062 5 -3 L5 -3.0938 L5.5938 -3.0938 Q11.9062 -3.5 15.9062 -8.5 Q16.9062 -9.7969 17.9062 -11.5 ZM29.9062 -26.2031 L52.7969 -26.2031 L49.5938 -59.2031 L29.9062 -26.2031 Z"
            />
        </g
        >
        <g transform="matrix(1,0,0,1,1,1)" style="font-size:100px; stroke-linecap:butt; font-family:'jlm_cmmi10'; stroke-linejoin:round; stroke-dasharray:2,2; stroke-miterlimit:1;"
        >
            <circle r="2" style="stroke:none;" cx="140" cy="80"
            />
            <path d="M16 -7.7969 L29.4062 -61.5 Q29.7969 -63.0938 29.7969 -63.4062 Q29.7969 -64.5938 28.2031 -64.9062 L28.0938 -64.9062 L28 -64.9062 Q27.7031 -64.9062 27.0938 -65 Q25.4062 -65.2031 23.2969 -65.2031 Q20.7031 -65.2031 20.5 -66.2969 Q20.5 -68.0938 22 -68.2969 L22.0938 -68.2969 L22.2031 -68.2969 L23.4062 -68.2969 L57 -68.2969 Q68.5 -68.2969 73.4062 -61.5 Q75.5938 -58.2969 75.5938 -54.5 Q75.5938 -46.4062 66.5938 -40.4062 Q66.5 -40.4062 66.4062 -40.2969 Q61.0938 -36.9062 54.7031 -35.7031 Q64.9062 -34.5 68.7031 -27.7031 Q70.2031 -24.9062 70.2031 -21.5938 Q70.2031 -14.2969 63.2031 -7.9062 L63.0938 -7.7969 Q54.5 0 42.5938 0 L6.9062 0 Q4.4062 0 4.2031 -1.0938 Q4.2031 -2.9062 5.7031 -3.0938 L6.9062 -3.0938 Q13.4062 -3.0938 14.7031 -4.5 Q15.2969 -5.2031 15.9062 -7.2969 Q15.9062 -7.4062 16 -7.7969 ZM31.0938 -36.5938 L45.7031 -36.5938 Q55.5938 -36.5938 62 -43.7969 Q66.5 -48.9062 66.5 -54.9062 Q66.5 -62.2031 60.5 -64.4062 Q58.4062 -65.2031 55.5938 -65.2031 L42.7031 -65.2031 Q39.0938 -65.2031 38.2969 -64.2031 L38.2969 -64.2031 L38.2969 -64.0938 L38.2031 -64.0938 L38.2031 -64 Q37.7969 -63.4062 37.2969 -61.4062 L31.0938 -36.5938 ZM26.5938 -3.0938 L40.2031 -3.0938 Q49.7969 -3.0938 56.0938 -10.2969 Q60.9062 -15.9062 60.9062 -22.7031 Q60.9062 -30 55.7031 -33 Q53.0938 -34.4062 49.4062 -34.4062 L30.5 -34.4062 L23.5938 -6.5 Q23.0938 -4.7031 23.0938 -4.2031 Q23.0938 -3.4062 24 -3.2031 L24 -3.2031 L24 -3.2031 L24.4062 -3.2031 Q25 -3.0938 26.5938 -3.0938 Z" style="stroke:none;" transform="scale(18,18) translate(7.9444,4.7389) scale(0.01,0.01)"
            />
        </g>
        
        <animate
          id="frame4"
          attributeName="display"
          values="none;none;none;inline;none"
          keyTimes="0;0.25;0.50;0.75;1"
          dur="2s"
          begin="0s"
          repeatCount="indefinite" />
    </g>
</svg>